<svg width="152" height="44" viewBox="0 0 152 44" fill="none" xmlns="http://www.w3.org/2000/svg">
<rect width="44" height="44" rx="22" fill="#F2F6F8"/>
<path d="M31.53 17.15C31.378 17.0622 31.2055 17.016 31.03 17.016C30.8545 17.016 30.682 17.0622 30.53 17.15L27 18.89C26.9715 18.1136 26.6429 17.3785 26.0834 16.8394C25.5238 16.3004 24.777 15.9995 24 16H15C14.2044 16 13.4413 16.3161 12.8787 16.8787C12.3161 17.4413 12 18.2044 12 19V25C12 25.7957 12.3161 26.5587 12.8787 27.1213C13.4413 27.6839 14.2044 28 15 28H24C24.777 28.0005 25.5238 27.6996 26.0834 27.1606C26.6429 26.6215 26.9715 25.8864 27 25.11L30.56 26.89C30.6963 26.9599 30.8468 26.9975 31 27C31.1872 27.0006 31.3709 26.9486 31.53 26.85C31.6741 26.7599 31.7929 26.6346 31.8751 26.4859C31.9574 26.3372 32.0003 26.1699 32 26V18C32.0003 17.8301 31.9574 17.6628 31.8751 17.5141C31.7929 17.3654 31.6741 17.2401 31.53 17.15ZM25 25C25 25.2652 24.8946 25.5196 24.7071 25.7071C24.5196 25.8946 24.2652 26 24 26H15C14.7348 26 14.4804 25.8946 14.2929 25.7071C14.1054 25.5196 14 25.2652 14 25V19C14 18.7348 14.1054 18.4804 14.2929 18.2929C14.4804 18.1054 14.7348 18 15 18H24C24.2652 18 24.5196 18.1054 24.7071 18.2929C24.8946 18.4804 25 18.7348 25 19V25ZM30 24.38L27 22.88V21.12L30 19.62V24.38Z" fill="#7C7C8D"/>
<rect x="54" width="44" height="44" rx="22" fill="#F2F6F8"/>
<path d="M83.4582 22.9603C83.2382 22.9603 83.0082 22.8903 82.7882 22.8403C82.3427 22.7421 81.9048 22.6118 81.4782 22.4503C81.0143 22.2815 80.5043 22.2903 80.0465 22.4749C79.5886 22.6595 79.2153 23.007 78.9982 23.4503L78.7782 23.9003C77.8042 23.3585 76.9092 22.6855 76.1182 21.9003C75.3329 21.1093 74.66 20.2143 74.1182 19.2403L74.5382 18.9603C74.9815 18.7432 75.3289 18.3698 75.5136 17.912C75.6982 17.4542 75.7069 16.9442 75.5382 16.4803C75.3794 16.0527 75.2491 15.6151 75.1482 15.1703C75.0982 14.9503 75.0582 14.7203 75.0282 14.4903C74.9067 13.7859 74.5378 13.1481 73.9878 12.6916C73.4378 12.2351 72.7429 11.9899 72.0282 12.0003H69.0282C68.5972 11.9963 68.1704 12.0851 67.7769 12.2608C67.3833 12.4366 67.0323 12.695 66.7476 13.0186C66.4629 13.3422 66.2513 13.7233 66.1272 14.136C66.003 14.5488 65.9692 14.9834 66.0282 15.4103C66.5609 19.5997 68.4742 23.4922 71.4658 26.473C74.4574 29.4537 78.3569 31.3528 82.5482 31.8703H82.9282C83.6656 31.8714 84.3776 31.6008 84.9282 31.1103C85.2445 30.8274 85.4973 30.4805 85.6696 30.0926C85.842 29.7048 85.9301 29.2848 85.9282 28.8603V25.8603C85.9159 25.1657 85.663 24.4969 85.2125 23.968C84.762 23.4391 84.142 23.0829 83.4582 22.9603ZM83.9582 28.9603C83.958 29.1023 83.9276 29.2426 83.8689 29.3719C83.8103 29.5013 83.7248 29.6166 83.6182 29.7103C83.5064 29.8068 83.3758 29.8789 83.2346 29.9219C83.0934 29.965 82.9447 29.978 82.7982 29.9603C79.0531 29.4801 75.5744 27.7668 72.9109 25.0906C70.2474 22.4144 68.5506 18.9277 68.0882 15.1803C68.0723 15.0338 68.0862 14.8856 68.1292 14.7447C68.1721 14.6038 68.2432 14.473 68.3382 14.3603C68.4319 14.2536 68.5472 14.1682 68.6765 14.1095C68.8059 14.0509 68.9462 14.0205 69.0882 14.0203H72.0882C72.3207 14.0151 72.5478 14.0912 72.7303 14.2354C72.9128 14.3796 73.0394 14.5829 73.0882 14.8103C73.1282 15.0837 73.1782 15.3537 73.2382 15.6203C73.3537 16.1475 73.5074 16.6655 73.6982 17.1703L72.2982 17.8203C72.1785 17.8752 72.0708 17.9533 71.9813 18.0499C71.8919 18.1466 71.8224 18.2599 71.7768 18.3835C71.7313 18.5071 71.7106 18.6384 71.716 18.77C71.7214 18.9016 71.7527 19.0309 71.8082 19.1503C73.2474 22.2331 75.7254 24.7111 78.8082 26.1503C79.0516 26.2503 79.3247 26.2503 79.5682 26.1503C79.6929 26.1057 79.8075 26.0368 79.9053 25.9475C80.0032 25.8582 80.0823 25.7504 80.1382 25.6303L80.7582 24.2303C81.2751 24.4152 81.8028 24.5688 82.3382 24.6903C82.6048 24.7503 82.8748 24.8003 83.1482 24.8403C83.3756 24.8891 83.5789 25.0157 83.7231 25.1982C83.8673 25.3807 83.9433 25.6078 83.9382 25.8403L83.9582 28.9603Z" fill="#7C7C8D"/>
<rect x="108" width="44" height="44" rx="22" fill="#F2F6F8"/>
<path d="M128 22C128 22.3956 128.117 22.7822 128.337 23.1111C128.557 23.44 128.869 23.6964 129.235 23.8478C129.6 23.9991 130.002 24.0387 130.39 23.9616C130.778 23.8844 131.135 23.6939 131.414 23.4142C131.694 23.1345 131.884 22.7781 131.962 22.3902C132.039 22.0022 131.999 21.6001 131.848 21.2346C131.696 20.8692 131.44 20.5568 131.111 20.3371C130.782 20.1173 130.396 20 130 20C129.47 20 128.961 20.2107 128.586 20.5858C128.211 20.9609 128 21.4696 128 22ZM128 29C128 29.3956 128.117 29.7822 128.337 30.1111C128.557 30.44 128.869 30.6964 129.235 30.8478C129.6 30.9991 130.002 31.0387 130.39 30.9616C130.778 30.8844 131.135 30.6939 131.414 30.4142C131.694 30.1345 131.884 29.7781 131.962 29.3902C132.039 29.0022 131.999 28.6001 131.848 28.2346C131.696 27.8692 131.44 27.5568 131.111 27.3371C130.782 27.1173 130.396 27 130 27C129.47 27 128.961 27.2107 128.586 27.5858C128.211 27.9609 128 28.4696 128 29ZM128 15C128 15.3956 128.117 15.7822 128.337 16.1111C128.557 16.44 128.869 16.6964 129.235 16.8478C129.6 16.9991 130.002 17.0387 130.39 16.9616C130.778 16.8844 131.135 16.6939 131.414 16.4142C131.694 16.1345 131.884 15.7781 131.962 15.3902C132.039 15.0022 131.999 14.6001 131.848 14.2346C131.696 13.8692 131.44 13.5568 131.111 13.3371C130.782 13.1173 130.396 13 130 13C129.47 13 128.961 13.2107 128.586 13.5858C128.211 13.9609 128 14.4696 128 15Z" fill="#7C7C8D"/>
</svg>
