<svg width="488" height="332" viewBox="0 0 488 332" fill="none" xmlns="http://www.w3.org/2000/svg">
<rect width="488" height="332" rx="14" fill="white"/>
<path d="M36.36 35V21H39.4L43.86 29.88L48.26 21H51.3V35H48.74V25.34L44.84 33H42.82L38.92 25.34V35H36.36ZM55.3363 23.54C54.8696 23.54 54.4829 23.4 54.1763 23.12C53.8829 22.84 53.7363 22.4867 53.7363 22.06C53.7363 21.6333 53.8829 21.2867 54.1763 21.02C54.4829 20.74 54.8696 20.6 55.3363 20.6C55.8029 20.6 56.1829 20.74 56.4763 21.02C56.7829 21.2867 56.9363 21.6333 56.9363 22.06C56.9363 22.4867 56.7829 22.84 56.4763 23.12C56.1829 23.4 55.8029 23.54 55.3363 23.54ZM54.0563 35V25.08H56.6163V35H54.0563ZM59.2883 35V20.6H61.8483V35H59.2883ZM69.2841 35.24C68.2841 35.24 67.3974 35.0267 66.6241 34.6C65.8507 34.1733 65.2441 33.5733 64.8041 32.8C64.3641 32.0267 64.1441 31.1333 64.1441 30.12C64.1441 29.0933 64.3574 28.18 64.7841 27.38C65.2241 26.58 65.8241 25.96 66.5841 25.52C67.3574 25.0667 68.2641 24.84 69.3041 24.84C70.2774 24.84 71.1374 25.0533 71.8841 25.48C72.6307 25.9067 73.2107 26.4933 73.6241 27.24C74.0507 27.9733 74.2641 28.7933 74.2641 29.7C74.2641 29.8467 74.2574 30 74.2441 30.16C74.2441 30.32 74.2374 30.4867 74.2241 30.66H66.6841C66.7374 31.4333 67.0041 32.04 67.4841 32.48C67.9774 32.92 68.5707 33.14 69.2641 33.14C69.7841 33.14 70.2174 33.0267 70.5641 32.8C70.9241 32.56 71.1907 32.2533 71.3641 31.88H73.9641C73.7774 32.5067 73.4641 33.08 73.0241 33.6C72.5974 34.1067 72.0641 34.5067 71.4241 34.8C70.7974 35.0933 70.0841 35.24 69.2841 35.24ZM69.3041 26.92C68.6774 26.92 68.1241 27.1 67.6441 27.46C67.1641 27.8067 66.8574 28.34 66.7241 29.06H71.6641C71.6241 28.4067 71.3841 27.8867 70.9441 27.5C70.5041 27.1133 69.9574 26.92 69.3041 26.92ZM80.5172 35.24C79.6372 35.24 78.8639 35.1 78.1972 34.82C77.5305 34.5267 76.9972 34.1267 76.5972 33.62C76.1972 33.1133 75.9572 32.5267 75.8772 31.86H78.4572C78.5372 32.2467 78.7505 32.58 79.0972 32.86C79.4572 33.1267 79.9172 33.26 80.4772 33.26C81.0372 33.26 81.4439 33.1467 81.6972 32.92C81.9639 32.6933 82.0972 32.4333 82.0972 32.14C82.0972 31.7133 81.9105 31.4267 81.5372 31.28C81.1639 31.12 80.6439 30.9667 79.9772 30.82C79.5505 30.7267 79.1172 30.6133 78.6772 30.48C78.2372 30.3467 77.8305 30.18 77.4572 29.98C77.0972 29.7667 76.8039 29.5 76.5772 29.18C76.3505 28.8467 76.2372 28.44 76.2372 27.96C76.2372 27.08 76.5839 26.34 77.2772 25.74C77.9839 25.14 78.9705 24.84 80.2372 24.84C81.4105 24.84 82.3439 25.1133 83.0372 25.66C83.7439 26.2067 84.1639 26.96 84.2972 27.92H81.8772C81.7305 27.1867 81.1772 26.82 80.2172 26.82C79.7372 26.82 79.3639 26.9133 79.0972 27.1C78.8439 27.2867 78.7172 27.52 78.7172 27.8C78.7172 28.0933 78.9105 28.3267 79.2972 28.5C79.6839 28.6733 80.1972 28.8333 80.8372 28.98C81.5305 29.14 82.1639 29.32 82.7372 29.52C83.3239 29.7067 83.7905 29.9933 84.1372 30.38C84.4839 30.7533 84.6572 31.2933 84.6572 32C84.6705 32.6133 84.5105 33.1667 84.1772 33.66C83.8439 34.1533 83.3639 34.54 82.7372 34.82C82.1105 35.1 81.3705 35.24 80.5172 35.24ZM96.3306 35.24C95.304 35.24 94.4106 35.0533 93.6506 34.68C92.8906 34.3067 92.304 33.7867 91.8906 33.12C91.4773 32.4533 91.2706 31.68 91.2706 30.8H93.0306C93.0306 31.3467 93.1573 31.8533 93.4106 32.32C93.664 32.7733 94.0306 33.14 94.5106 33.42C95.004 33.6867 95.6106 33.82 96.3306 33.82C97.2773 33.82 98.0106 33.5933 98.5306 33.14C99.0506 32.6867 99.3106 32.12 99.3106 31.44C99.3106 30.88 99.1906 30.4333 98.9506 30.1C98.7106 29.7533 98.384 29.4733 97.9706 29.26C97.5706 29.0467 97.104 28.86 96.5706 28.7C96.0506 28.54 95.504 28.36 94.9306 28.16C93.8506 27.7867 93.0506 27.3267 92.5306 26.78C92.0106 26.22 91.7506 25.4933 91.7506 24.6C91.7373 23.8533 91.9106 23.1933 92.2706 22.62C92.6306 22.0333 93.1373 21.58 93.7906 21.26C94.4573 20.9267 95.244 20.76 96.1506 20.76C97.044 20.76 97.8173 20.9267 98.4706 21.26C99.1373 21.5933 99.6506 22.0533 100.011 22.64C100.384 23.2267 100.577 23.8933 100.591 24.64H98.8306C98.8306 24.2533 98.7306 23.8733 98.5306 23.5C98.3306 23.1133 98.024 22.8 97.6106 22.56C97.2106 22.32 96.704 22.2 96.0906 22.2C95.3306 22.1867 94.704 22.38 94.2106 22.78C93.7306 23.18 93.4906 23.7333 93.4906 24.44C93.4906 25.04 93.6573 25.5 93.9906 25.82C94.3373 26.14 94.8173 26.4067 95.4306 26.62C96.044 26.82 96.7506 27.0533 97.5506 27.32C98.2173 27.56 98.8173 27.84 99.3506 28.16C99.884 28.48 100.297 28.8933 100.591 29.4C100.897 29.9067 101.051 30.5533 101.051 31.34C101.051 32.0067 100.877 32.64 100.531 33.24C100.184 33.8267 99.6573 34.3067 98.9506 34.68C98.2573 35.0533 97.384 35.24 96.3306 35.24ZM107.253 35C106.346 35 105.633 34.78 105.113 34.34C104.593 33.9 104.333 33.1067 104.333 31.96V26.5H102.613V25.08H104.333L104.553 22.7H106.013V25.08H108.933V26.5H106.013V31.96C106.013 32.5867 106.14 33.0133 106.393 33.24C106.646 33.4533 107.093 33.56 107.733 33.56H108.773V35H107.253ZM114.368 35.24C113.541 35.24 112.854 35.1 112.308 34.82C111.761 34.54 111.354 34.1667 111.088 33.7C110.821 33.2333 110.688 32.7267 110.688 32.18C110.688 31.1667 111.074 30.3867 111.848 29.84C112.621 29.2933 113.674 29.02 115.008 29.02H117.688V28.9C117.688 28.0333 117.461 27.38 117.008 26.94C116.554 26.4867 115.948 26.26 115.188 26.26C114.534 26.26 113.968 26.4267 113.488 26.76C113.021 27.08 112.728 27.5533 112.608 28.18H110.888C110.954 27.46 111.194 26.8533 111.608 26.36C112.034 25.8667 112.561 25.4933 113.188 25.24C113.814 24.9733 114.481 24.84 115.188 24.84C116.574 24.84 117.614 25.2133 118.308 25.96C119.014 26.6933 119.368 27.6733 119.368 28.9V35H117.868L117.768 33.22C117.488 33.78 117.074 34.26 116.528 34.66C115.994 35.0467 115.274 35.24 114.368 35.24ZM114.628 33.82C115.268 33.82 115.814 33.6533 116.268 33.32C116.734 32.9867 117.088 32.5533 117.328 32.02C117.568 31.4867 117.688 30.9267 117.688 30.34V30.32H115.148C114.161 30.32 113.461 30.4933 113.048 30.84C112.648 31.1733 112.448 31.5933 112.448 32.1C112.448 32.62 112.634 33.04 113.008 33.36C113.394 33.6667 113.934 33.82 114.628 33.82ZM125.534 35C124.628 35 123.914 34.78 123.394 34.34C122.874 33.9 122.614 33.1067 122.614 31.96V26.5H120.894V25.08H122.614L122.834 22.7H124.294V25.08H127.214V26.5H124.294V31.96C124.294 32.5867 124.421 33.0133 124.674 33.24C124.928 33.4533 125.374 33.56 126.014 33.56H127.054V35H125.534ZM130.369 22.88C130.035 22.88 129.755 22.7733 129.529 22.56C129.315 22.3333 129.209 22.0533 129.209 21.72C129.209 21.4 129.315 21.1333 129.529 20.92C129.755 20.7067 130.035 20.6 130.369 20.6C130.689 20.6 130.962 20.7067 131.189 20.92C131.415 21.1333 131.529 21.4 131.529 21.72C131.529 22.0533 131.415 22.3333 131.189 22.56C130.962 22.7733 130.689 22.88 130.369 22.88ZM129.529 35V25.08H131.209V35H129.529ZM137.934 35.24C136.747 35.24 135.761 34.94 134.974 34.34C134.187 33.74 133.727 32.9267 133.594 31.9H135.314C135.421 32.42 135.694 32.8733 136.134 33.26C136.587 33.6333 137.194 33.82 137.954 33.82C138.661 33.82 139.181 33.6733 139.514 33.38C139.847 33.0733 140.014 32.7133 140.014 32.3C140.014 31.7 139.794 31.3 139.354 31.1C138.927 30.9 138.321 30.72 137.534 30.56C137.001 30.4533 136.467 30.3 135.934 30.1C135.401 29.9 134.954 29.62 134.594 29.26C134.234 28.8867 134.054 28.4 134.054 27.8C134.054 26.9333 134.374 26.2267 135.014 25.68C135.667 25.12 136.547 24.84 137.654 24.84C138.707 24.84 139.567 25.1067 140.234 25.64C140.914 26.16 141.307 26.9067 141.414 27.88H139.754C139.687 27.3733 139.467 26.98 139.094 26.7C138.734 26.4067 138.247 26.26 137.634 26.26C137.034 26.26 136.567 26.3867 136.234 26.64C135.914 26.8933 135.754 27.2267 135.754 27.64C135.754 28.04 135.961 28.3533 136.374 28.58C136.801 28.8067 137.374 29 138.094 29.16C138.707 29.2933 139.287 29.46 139.834 29.66C140.394 29.8467 140.847 30.1333 141.194 30.52C141.554 30.8933 141.734 31.44 141.734 32.16C141.747 33.0533 141.407 33.7933 140.714 34.38C140.034 34.9533 139.107 35.24 137.934 35.24ZM147.605 35C146.698 35 145.985 34.78 145.465 34.34C144.945 33.9 144.685 33.1067 144.685 31.96V26.5H142.965V25.08H144.685L144.905 22.7H146.365V25.08H149.285V26.5H146.365V31.96C146.365 32.5867 146.491 33.0133 146.745 33.24C146.998 33.4533 147.445 33.56 148.085 33.56H149.125V35H147.605ZM152.439 22.88C152.106 22.88 151.826 22.7733 151.599 22.56C151.386 22.3333 151.279 22.0533 151.279 21.72C151.279 21.4 151.386 21.1333 151.599 20.92C151.826 20.7067 152.106 20.6 152.439 20.6C152.759 20.6 153.032 20.7067 153.259 20.92C153.486 21.1333 153.599 21.4 153.599 21.72C153.599 22.0533 153.486 22.3333 153.259 22.56C153.032 22.7733 152.759 22.88 152.439 22.88ZM151.599 35V25.08H153.279V35H151.599ZM160.764 35.24C159.818 35.24 158.964 35.0267 158.204 34.6C157.458 34.16 156.864 33.5533 156.424 32.78C155.998 31.9933 155.784 31.08 155.784 30.04C155.784 29 155.998 28.0933 156.424 27.32C156.864 26.5333 157.458 25.9267 158.204 25.5C158.964 25.06 159.818 24.84 160.764 24.84C161.938 24.84 162.924 25.1467 163.724 25.76C164.538 26.3733 165.051 27.1933 165.264 28.22H163.544C163.411 27.6067 163.084 27.1333 162.564 26.8C162.044 26.4533 161.438 26.28 160.744 26.28C160.184 26.28 159.658 26.42 159.164 26.7C158.671 26.98 158.271 27.4 157.964 27.96C157.658 28.52 157.504 29.2133 157.504 30.04C157.504 30.8667 157.658 31.56 157.964 32.12C158.271 32.68 158.671 33.1067 159.164 33.4C159.658 33.68 160.184 33.82 160.744 33.82C161.438 33.82 162.044 33.6533 162.564 33.32C163.084 32.9733 163.411 32.4867 163.544 31.86H165.264C165.064 32.86 164.558 33.6733 163.744 34.3C162.931 34.9267 161.938 35.24 160.764 35.24ZM171.41 35.24C170.224 35.24 169.237 34.94 168.45 34.34C167.664 33.74 167.204 32.9267 167.07 31.9H168.79C168.897 32.42 169.17 32.8733 169.61 33.26C170.064 33.6333 170.67 33.82 171.43 33.82C172.137 33.82 172.657 33.6733 172.99 33.38C173.324 33.0733 173.49 32.7133 173.49 32.3C173.49 31.7 173.27 31.3 172.83 31.1C172.404 30.9 171.797 30.72 171.01 30.56C170.477 30.4533 169.944 30.3 169.41 30.1C168.877 29.9 168.43 29.62 168.07 29.26C167.71 28.8867 167.53 28.4 167.53 27.8C167.53 26.9333 167.85 26.2267 168.49 25.68C169.144 25.12 170.024 24.84 171.13 24.84C172.184 24.84 173.044 25.1067 173.71 25.64C174.39 26.16 174.784 26.9067 174.89 27.88H173.23C173.164 27.3733 172.944 26.98 172.57 26.7C172.21 26.4067 171.724 26.26 171.11 26.26C170.51 26.26 170.044 26.3867 169.71 26.64C169.39 26.8933 169.23 27.2267 169.23 27.64C169.23 28.04 169.437 28.3533 169.85 28.58C170.277 28.8067 170.85 29 171.57 29.16C172.184 29.2933 172.764 29.46 173.31 29.66C173.87 29.8467 174.324 30.1333 174.67 30.52C175.03 30.8933 175.21 31.44 175.21 32.16C175.224 33.0533 174.884 33.7933 174.19 34.38C173.51 34.9533 172.584 35.24 171.41 35.24Z" fill="#242731"/>
<rect x="35" y="65" width="43" height="20" rx="10" fill="#2884FF"/>
<path d="M47.68 78.5V71.5H50.07C50.89 71.5 51.5633 71.6467 52.09 71.94C52.6233 72.2267 53.0167 72.6333 53.27 73.16C53.53 73.68 53.66 74.2933 53.66 75C53.66 75.7067 53.53 76.3233 53.27 76.85C53.0167 77.37 52.6233 77.7767 52.09 78.07C51.5633 78.3567 50.89 78.5 50.07 78.5H47.68ZM48.96 77.4H50.01C50.5967 77.4 51.06 77.3067 51.4 77.12C51.74 76.9267 51.9833 76.6533 52.13 76.3C52.2767 75.94 52.35 75.5067 52.35 75C52.35 74.5 52.2767 74.07 52.13 73.71C51.9833 73.35 51.74 73.0733 51.4 72.88C51.06 72.6867 50.5967 72.59 50.01 72.59H48.96V77.4ZM56.4694 78.62C56.0427 78.62 55.6927 78.5533 55.4194 78.42C55.146 78.28 54.9427 78.0967 54.8094 77.87C54.676 77.6433 54.6094 77.3933 54.6094 77.12C54.6094 76.66 54.7894 76.2867 55.1494 76C55.5094 75.7133 56.0494 75.57 56.7694 75.57H58.0294V75.45C58.0294 75.11 57.9327 74.86 57.7394 74.7C57.546 74.54 57.306 74.46 57.0194 74.46C56.7594 74.46 56.5327 74.5233 56.3394 74.65C56.146 74.77 56.026 74.95 55.9794 75.19H54.7294C54.7627 74.83 54.8827 74.5167 55.0894 74.25C55.3027 73.9833 55.576 73.78 55.9094 73.64C56.2427 73.4933 56.616 73.42 57.0294 73.42C57.736 73.42 58.2927 73.5967 58.6994 73.95C59.106 74.3033 59.3094 74.8033 59.3094 75.45V78.5H58.2194L58.0994 77.7C57.9527 77.9667 57.746 78.1867 57.4794 78.36C57.2194 78.5333 56.8827 78.62 56.4694 78.62ZM56.7594 77.62C57.126 77.62 57.4094 77.5 57.6094 77.26C57.816 77.02 57.946 76.7233 57.9994 76.37H56.9094C56.5694 76.37 56.326 76.4333 56.1794 76.56C56.0327 76.68 55.9594 76.83 55.9594 77.01C55.9594 77.2033 56.0327 77.3533 56.1794 77.46C56.326 77.5667 56.5194 77.62 56.7594 77.62ZM60.9848 80.7L62.1348 78.17H61.8348L59.9048 73.54H61.2948L62.6848 77.03L64.1348 73.54H65.4948L62.3448 80.7H60.9848Z" fill="white"/>
<path d="M102.1 78.5L100.25 71.5H101.62L102.88 77.07L104.36 71.5H105.77L107.21 77.07L108.47 71.5H109.85L107.95 78.5H106.43L105.04 73.31L103.61 78.5H102.1ZM112.63 78.62C112.13 78.62 111.687 78.5133 111.3 78.3C110.914 78.0867 110.61 77.7867 110.39 77.4C110.17 77.0133 110.06 76.5667 110.06 76.06C110.06 75.5467 110.167 75.09 110.38 74.69C110.6 74.29 110.9 73.98 111.28 73.76C111.667 73.5333 112.12 73.42 112.64 73.42C113.127 73.42 113.557 73.5267 113.93 73.74C114.304 73.9533 114.594 74.2467 114.8 74.62C115.014 74.9867 115.12 75.3967 115.12 75.85C115.12 75.9233 115.117 76 115.11 76.08C115.11 76.16 115.107 76.2433 115.1 76.33H111.33C111.357 76.7167 111.49 77.02 111.73 77.24C111.977 77.46 112.274 77.57 112.62 77.57C112.88 77.57 113.097 77.5133 113.27 77.4C113.45 77.28 113.584 77.1267 113.67 76.94H114.97C114.877 77.2533 114.72 77.54 114.5 77.8C114.287 78.0533 114.02 78.2533 113.7 78.4C113.387 78.5467 113.03 78.62 112.63 78.62ZM112.64 74.46C112.327 74.46 112.05 74.55 111.81 74.73C111.57 74.9033 111.417 75.17 111.35 75.53H113.82C113.8 75.2033 113.68 74.9433 113.46 74.75C113.24 74.5567 112.967 74.46 112.64 74.46ZM118.607 78.62C118.107 78.62 117.664 78.5133 117.277 78.3C116.89 78.0867 116.587 77.7867 116.367 77.4C116.147 77.0133 116.037 76.5667 116.037 76.06C116.037 75.5467 116.144 75.09 116.357 74.69C116.577 74.29 116.877 73.98 117.257 73.76C117.644 73.5333 118.097 73.42 118.617 73.42C119.104 73.42 119.534 73.5267 119.907 73.74C120.28 73.9533 120.57 74.2467 120.777 74.62C120.99 74.9867 121.097 75.3967 121.097 75.85C121.097 75.9233 121.094 76 121.087 76.08C121.087 76.16 121.084 76.2433 121.077 76.33H117.307C117.334 76.7167 117.467 77.02 117.707 77.24C117.954 77.46 118.25 77.57 118.597 77.57C118.857 77.57 119.074 77.5133 119.247 77.4C119.427 77.28 119.56 77.1267 119.647 76.94H120.947C120.854 77.2533 120.697 77.54 120.477 77.8C120.264 78.0533 119.997 78.2533 119.677 78.4C119.364 78.5467 119.007 78.62 118.607 78.62ZM118.617 74.46C118.304 74.46 118.027 74.55 117.787 74.73C117.547 74.9033 117.394 75.17 117.327 75.53H119.797C119.777 75.2033 119.657 74.9433 119.437 74.75C119.217 74.5567 118.944 74.46 118.617 74.46ZM122.173 78.5V71.3H123.453V75.55L125.213 73.54H126.733L124.703 75.8L127.063 78.5H125.463L123.453 76.01V78.5H122.173Z" fill="#5F6165"/>
<path d="M164.68 78.5V71.5H166.2L168.43 75.94L170.63 71.5H172.15V78.5H170.87V73.67L168.92 77.5H167.91L165.96 73.67V78.5H164.68ZM175.858 78.62C175.378 78.62 174.945 78.51 174.558 78.29C174.178 78.07 173.875 77.7667 173.648 77.38C173.428 76.9867 173.318 76.5333 173.318 76.02C173.318 75.5067 173.431 75.0567 173.658 74.67C173.885 74.2767 174.188 73.97 174.568 73.75C174.955 73.53 175.388 73.42 175.868 73.42C176.341 73.42 176.768 73.53 177.148 73.75C177.535 73.97 177.838 74.2767 178.058 74.67C178.285 75.0567 178.398 75.5067 178.398 76.02C178.398 76.5333 178.285 76.9867 178.058 77.38C177.838 77.7667 177.535 78.07 177.148 78.29C176.761 78.51 176.331 78.62 175.858 78.62ZM175.858 77.51C176.191 77.51 176.481 77.3867 176.728 77.14C176.975 76.8867 177.098 76.5133 177.098 76.02C177.098 75.5267 176.975 75.1567 176.728 74.91C176.481 74.6567 176.195 74.53 175.868 74.53C175.528 74.53 175.235 74.6567 174.988 74.91C174.748 75.1567 174.628 75.5267 174.628 76.02C174.628 76.5133 174.748 76.8867 174.988 77.14C175.235 77.3867 175.525 77.51 175.858 77.51ZM179.543 78.5V73.54H180.673L180.773 74.38C180.926 74.0867 181.146 73.8533 181.433 73.68C181.726 73.5067 182.069 73.42 182.463 73.42C183.076 73.42 183.553 73.6133 183.893 74C184.233 74.3867 184.403 74.9533 184.403 75.7V78.5H183.123V75.82C183.123 75.3933 183.036 75.0667 182.863 74.84C182.689 74.6133 182.419 74.5 182.053 74.5C181.693 74.5 181.396 74.6267 181.163 74.88C180.936 75.1333 180.823 75.4867 180.823 75.94V78.5H179.543ZM187.837 78.5C187.317 78.5 186.9 78.3733 186.587 78.12C186.273 77.8667 186.117 77.4167 186.117 76.77V74.61H185.267V73.54H186.117L186.267 72.21H187.397V73.54H188.737V74.61H187.397V76.78C187.397 77.02 187.447 77.1867 187.547 77.28C187.653 77.3667 187.833 77.41 188.087 77.41H188.707V78.5H187.837ZM189.836 78.5V71.3H191.116V74.3C191.282 74.0267 191.506 73.8133 191.786 73.66C192.072 73.5 192.399 73.42 192.766 73.42C193.379 73.42 193.852 73.6133 194.186 74C194.526 74.3867 194.696 74.9533 194.696 75.7V78.5H193.426V75.82C193.426 75.3933 193.339 75.0667 193.166 74.84C192.999 74.6133 192.732 74.5 192.366 74.5C192.006 74.5 191.706 74.6267 191.466 74.88C191.232 75.1333 191.116 75.4867 191.116 75.94V78.5H189.836Z" fill="#5F6165"/>
<path d="M388.714 80V78.698C389.311 78.2033 389.89 77.7133 390.45 77.228C391.019 76.7427 391.523 76.262 391.962 75.786C392.41 75.31 392.765 74.848 393.026 74.4C393.297 73.9427 393.432 73.4993 393.432 73.07C393.432 72.6687 393.32 72.314 393.096 72.006C392.881 71.698 392.522 71.544 392.018 71.544C391.505 71.544 391.117 71.712 390.856 72.048C390.595 72.384 390.464 72.79 390.464 73.266H388.728C388.747 72.5473 388.905 71.95 389.204 71.474C389.503 70.9887 389.899 70.6293 390.394 70.396C390.889 70.1533 391.444 70.032 392.06 70.032C393.059 70.032 393.833 70.3073 394.384 70.858C394.944 71.3993 395.224 72.104 395.224 72.972C395.224 73.5133 395.098 74.0407 394.846 74.554C394.603 75.0673 394.281 75.562 393.88 76.038C393.479 76.514 393.045 76.962 392.578 77.382C392.111 77.7927 391.659 78.1753 391.22 78.53H395.462V80H388.714ZM400.464 80.168C399.745 80.168 399.125 80.042 398.602 79.79C398.089 79.538 397.683 79.1927 397.384 78.754C397.095 78.306 396.927 77.802 396.88 77.242H398.63C398.714 77.6433 398.919 77.9793 399.246 78.25C399.573 78.5113 399.979 78.642 400.464 78.642C400.987 78.642 401.411 78.4507 401.738 78.068C402.074 77.6853 402.242 77.2093 402.242 76.64C402.242 76.052 402.074 75.5853 401.738 75.24C401.411 74.8947 400.996 74.722 400.492 74.722C400.072 74.722 399.708 74.8247 399.4 75.03C399.092 75.2353 398.873 75.492 398.742 75.8H397.02L397.86 70.2H403.292V71.768H399.204L398.756 74.036C398.961 73.812 399.241 73.63 399.596 73.49C399.951 73.3407 400.347 73.266 400.786 73.266C401.486 73.266 402.069 73.4247 402.536 73.742C403.003 74.05 403.357 74.4607 403.6 74.974C403.843 75.478 403.964 76.0287 403.964 76.626C403.964 77.3073 403.815 77.914 403.516 78.446C403.227 78.978 402.816 79.398 402.284 79.706C401.761 80.014 401.155 80.168 400.464 80.168ZM409.314 80.168C408.576 80.168 407.956 80.0327 407.452 79.762C406.948 79.4913 406.542 79.1273 406.234 78.67C405.926 78.2127 405.702 77.704 405.562 77.144C405.431 76.584 405.366 76.01 405.366 75.422C405.366 74.33 405.52 73.3827 405.828 72.58C406.136 71.768 406.579 71.1427 407.158 70.704C407.736 70.256 408.436 70.032 409.258 70.032C409.93 70.032 410.499 70.1673 410.966 70.438C411.442 70.6993 411.81 71.0447 412.072 71.474C412.333 71.9033 412.487 72.3653 412.534 72.86H410.868C410.784 72.4307 410.602 72.0993 410.322 71.866C410.042 71.6327 409.682 71.516 409.244 71.516C408.618 71.516 408.114 71.8053 407.732 72.384C407.349 72.9533 407.144 73.826 407.116 75.002C407.34 74.6193 407.676 74.302 408.124 74.05C408.572 73.798 409.071 73.672 409.622 73.672C410.163 73.672 410.672 73.8027 411.148 74.064C411.624 74.3253 412.006 74.694 412.296 75.17C412.594 75.646 412.744 76.206 412.744 76.85C412.744 77.438 412.599 77.984 412.31 78.488C412.03 78.992 411.628 79.398 411.106 79.706C410.592 80.014 409.995 80.168 409.314 80.168ZM409.216 78.628C409.738 78.628 410.168 78.4693 410.504 78.152C410.849 77.8253 411.022 77.4147 411.022 76.92C411.022 76.3973 410.849 75.9773 410.504 75.66C410.158 75.3427 409.72 75.184 409.188 75.184C408.842 75.184 408.53 75.2633 408.25 75.422C407.979 75.5713 407.764 75.7767 407.606 76.038C407.447 76.29 407.368 76.5747 407.368 76.892C407.368 77.396 407.54 77.8113 407.886 78.138C408.24 78.4647 408.684 78.628 409.216 78.628ZM417.841 80V70.2H419.969L423.091 76.416L426.171 70.2H428.299V80H426.507V73.238L423.777 78.6H422.363L419.633 73.238V80H417.841ZM431.124 71.978C430.797 71.978 430.527 71.88 430.312 71.684C430.107 71.488 430.004 71.2407 430.004 70.942C430.004 70.6433 430.107 70.4007 430.312 70.214C430.527 70.018 430.797 69.92 431.124 69.92C431.451 69.92 431.717 70.018 431.922 70.214C432.137 70.4007 432.244 70.6433 432.244 70.942C432.244 71.2407 432.137 71.488 431.922 71.684C431.717 71.88 431.451 71.978 431.124 71.978ZM430.228 80V73.056H432.02V80H430.228ZM433.89 80V69.92H435.682V80H433.89ZM440.888 80.168C440.188 80.168 439.567 80.0187 439.026 79.72C438.484 79.4213 438.06 79.0013 437.752 78.46C437.444 77.9187 437.29 77.2933 437.29 76.584C437.29 75.8653 437.439 75.226 437.738 74.666C438.046 74.106 438.466 73.672 438.998 73.364C439.539 73.0467 440.174 72.888 440.902 72.888C441.583 72.888 442.185 73.0373 442.708 73.336C443.23 73.6347 443.636 74.0453 443.926 74.568C444.224 75.0813 444.374 75.6553 444.374 76.29C444.374 76.3927 444.369 76.5 444.36 76.612C444.36 76.724 444.355 76.8407 444.346 76.962H439.068C439.105 77.5033 439.292 77.928 439.628 78.236C439.973 78.544 440.388 78.698 440.874 78.698C441.238 78.698 441.541 78.6187 441.784 78.46C442.036 78.292 442.222 78.0773 442.344 77.816H444.164C444.033 78.2547 443.814 78.656 443.506 79.02C443.207 79.3747 442.834 79.6547 442.386 79.86C441.947 80.0653 441.448 80.168 440.888 80.168ZM440.902 74.344C440.463 74.344 440.076 74.47 439.74 74.722C439.404 74.9647 439.189 75.338 439.096 75.842H442.554C442.526 75.3847 442.358 75.0207 442.05 74.75C441.742 74.4793 441.359 74.344 440.902 74.344ZM448.751 80.168C448.135 80.168 447.593 80.07 447.127 79.874C446.66 79.6687 446.287 79.3887 446.007 79.034C445.727 78.6793 445.559 78.2687 445.503 77.802H447.309C447.365 78.0727 447.514 78.306 447.757 78.502C448.009 78.6887 448.331 78.782 448.723 78.782C449.115 78.782 449.399 78.7027 449.577 78.544C449.763 78.3853 449.857 78.2033 449.857 77.998C449.857 77.6993 449.726 77.4987 449.465 77.396C449.203 77.284 448.839 77.1767 448.373 77.074C448.074 77.0087 447.771 76.9293 447.463 76.836C447.155 76.7427 446.87 76.626 446.609 76.486C446.357 76.3367 446.151 76.15 445.993 75.926C445.834 75.6927 445.755 75.408 445.755 75.072C445.755 74.456 445.997 73.938 446.483 73.518C446.977 73.098 447.668 72.888 448.555 72.888C449.376 72.888 450.029 73.0793 450.515 73.462C451.009 73.8447 451.303 74.372 451.397 75.044H449.703C449.6 74.5307 449.213 74.274 448.541 74.274C448.205 74.274 447.943 74.3393 447.757 74.47C447.579 74.6007 447.491 74.764 447.491 74.96C447.491 75.1653 447.626 75.3287 447.897 75.45C448.167 75.5713 448.527 75.6833 448.975 75.786C449.46 75.898 449.903 76.024 450.305 76.164C450.715 76.2947 451.042 76.4953 451.285 76.766C451.527 77.0273 451.649 77.4053 451.649 77.9C451.658 78.3293 451.546 78.7167 451.313 79.062C451.079 79.4073 450.743 79.678 450.305 79.874C449.866 80.07 449.348 80.168 448.751 80.168Z" fill="#5F6165"/>
<rect x="35" y="134" width="28" height="163" fill="#F4F5F9"/>
<rect x="81" y="99" width="1" height="198" fill="#F2F2F2"/>
<rect x="100" y="173" width="28" height="124" fill="#F4F5F9"/>
<rect x="146" y="99" width="1" height="198" fill="#F2F2F2"/>
<rect x="165" y="112" width="28" height="185" fill="#2884FF"/>
<rect x="211" y="99" width="1" height="198" fill="#F2F2F2"/>
<rect x="230" y="190" width="28" height="107" fill="#F4F5F9"/>
<rect x="276" y="99" width="1" height="198" fill="#F2F2F2"/>
<rect x="295" y="134" width="28" height="163" fill="#F4F5F9"/>
<rect x="341" y="99" width="1" height="198" fill="#F2F2F2"/>
<rect x="360" y="219" width="28" height="78" fill="#F4F5F9"/>
<rect x="406" y="99" width="1" height="198" fill="#F2F2F2"/>
<rect x="425" y="163" width="28" height="134" fill="#F4F5F9"/>
<path d="M37.002 318V309.516L35.42 309.866V309.054L37.394 308.2H38.192V318H37.002ZM43.9657 318V308.2H47.1857C47.951 308.2 48.581 308.326 49.0757 308.578C49.5704 308.83 49.9344 309.171 50.1677 309.6C50.4104 310.029 50.5317 310.515 50.5317 311.056C50.5317 311.588 50.415 312.069 50.1817 312.498C49.9484 312.927 49.5844 313.273 49.0897 313.534C48.595 313.786 47.9604 313.912 47.1857 313.912H45.1417V318H43.9657ZM45.1417 312.918H47.1577C47.9417 312.918 48.497 312.755 48.8237 312.428C49.1597 312.092 49.3277 311.635 49.3277 311.056C49.3277 310.468 49.1597 310.011 48.8237 309.684C48.497 309.348 47.9417 309.18 47.1577 309.18H45.1417V312.918ZM52.0731 318V308.2H53.4451L56.9731 315.032L60.4731 308.2H61.8591V318H60.6831V310.3L57.4071 316.6H56.5251L53.2491 310.314V318H52.0731Z" fill="#808191"/>
<path d="M96.382 318V317.174C97.0447 316.651 97.67 316.124 98.258 315.592C98.8553 315.051 99.3827 314.519 99.84 313.996C100.307 313.473 100.671 312.96 100.932 312.456C101.203 311.952 101.338 311.467 101.338 311C101.338 310.655 101.277 310.333 101.156 310.034C101.044 309.735 100.857 309.497 100.596 309.32C100.335 309.133 99.98 309.04 99.532 309.04C99.1027 309.04 98.7433 309.138 98.454 309.334C98.1647 309.521 97.9453 309.773 97.796 310.09C97.656 310.407 97.586 310.748 97.586 311.112H96.452C96.452 310.468 96.5873 309.917 96.858 309.46C97.1287 308.993 97.4973 308.639 97.964 308.396C98.4307 308.153 98.958 308.032 99.546 308.032C100.414 308.032 101.123 308.279 101.674 308.774C102.234 309.259 102.514 309.987 102.514 310.958C102.514 311.537 102.369 312.111 102.08 312.68C101.791 313.24 101.422 313.786 100.974 314.318C100.526 314.841 100.045 315.331 99.532 315.788C99.028 316.245 98.5567 316.656 98.118 317.02H102.85V318H96.382ZM108.253 318V308.2H111.473C112.238 308.2 112.868 308.326 113.363 308.578C113.857 308.83 114.221 309.171 114.455 309.6C114.697 310.029 114.819 310.515 114.819 311.056C114.819 311.588 114.702 312.069 114.469 312.498C114.235 312.927 113.871 313.273 113.377 313.534C112.882 313.786 112.247 313.912 111.473 313.912H109.429V318H108.253ZM109.429 312.918H111.445C112.229 312.918 112.784 312.755 113.111 312.428C113.447 312.092 113.615 311.635 113.615 311.056C113.615 310.468 113.447 310.011 113.111 309.684C112.784 309.348 112.229 309.18 111.445 309.18H109.429V312.918ZM116.36 318V308.2H117.732L121.26 315.032L124.76 308.2H126.146V318H124.97V310.3L121.694 316.6H120.812L117.536 310.314V318H116.36Z" fill="#808191"/>
<path d="M164.088 318.168C163.463 318.168 162.898 318.056 162.394 317.832C161.89 317.599 161.484 317.253 161.176 316.796C160.877 316.339 160.719 315.769 160.7 315.088H161.89C161.899 315.648 162.095 316.133 162.478 316.544C162.861 316.945 163.397 317.146 164.088 317.146C164.779 317.146 165.297 316.955 165.642 316.572C165.997 316.189 166.174 315.727 166.174 315.186C166.174 314.729 166.062 314.355 165.838 314.066C165.623 313.777 165.329 313.562 164.956 313.422C164.592 313.282 164.191 313.212 163.752 313.212H163.024V312.218H163.752C164.387 312.218 164.881 312.073 165.236 311.784C165.6 311.495 165.782 311.089 165.782 310.566C165.782 310.127 165.637 309.768 165.348 309.488C165.068 309.199 164.648 309.054 164.088 309.054C163.547 309.054 163.113 309.217 162.786 309.544C162.459 309.861 162.277 310.263 162.24 310.748H161.05C161.078 310.216 161.218 309.745 161.47 309.334C161.731 308.923 162.086 308.606 162.534 308.382C162.982 308.149 163.5 308.032 164.088 308.032C164.723 308.032 165.25 308.144 165.67 308.368C166.099 308.592 166.421 308.891 166.636 309.264C166.86 309.637 166.972 310.048 166.972 310.496C166.972 310.991 166.837 311.443 166.566 311.854C166.295 312.255 165.889 312.526 165.348 312.666C165.927 312.787 166.407 313.063 166.79 313.492C167.173 313.921 167.364 314.486 167.364 315.186C167.364 315.727 167.238 316.227 166.986 316.684C166.743 317.132 166.379 317.491 165.894 317.762C165.409 318.033 164.807 318.168 164.088 318.168ZM172.972 318V308.2H176.192C176.957 308.2 177.587 308.326 178.082 308.578C178.576 308.83 178.94 309.171 179.174 309.6C179.416 310.029 179.538 310.515 179.538 311.056C179.538 311.588 179.421 312.069 179.188 312.498C178.954 312.927 178.59 313.273 178.096 313.534C177.601 313.786 176.966 313.912 176.192 313.912H174.148V318H172.972ZM174.148 312.918H176.164C176.948 312.918 177.503 312.755 177.83 312.428C178.166 312.092 178.334 311.635 178.334 311.056C178.334 310.468 178.166 310.011 177.83 309.684C177.503 309.348 176.948 309.18 176.164 309.18H174.148V312.918ZM181.079 318V308.2H182.451L185.979 315.032L189.479 308.2H190.865V318H189.689V310.3L186.413 316.6H185.531L182.255 310.314V318H181.079Z" fill="#808191"/>
<path d="M229.974 318V315.9H225.004V314.99L229.764 308.2H231.136V314.864H232.592V315.9H231.136V318H229.974ZM226.306 314.864H230.03V309.502L226.306 314.864ZM237.718 318V308.2H240.938C241.703 308.2 242.333 308.326 242.828 308.578C243.322 308.83 243.686 309.171 243.92 309.6C244.162 310.029 244.284 310.515 244.284 311.056C244.284 311.588 244.167 312.069 243.934 312.498C243.7 312.927 243.336 313.273 242.842 313.534C242.347 313.786 241.712 313.912 240.938 313.912H238.894V318H237.718ZM238.894 312.918H240.91C241.694 312.918 242.249 312.755 242.576 312.428C242.912 312.092 243.08 311.635 243.08 311.056C243.08 310.468 242.912 310.011 242.576 309.684C242.249 309.348 241.694 309.18 240.91 309.18H238.894V312.918ZM245.825 318V308.2H247.197L250.725 315.032L254.225 308.2H255.611V318H254.435V310.3L251.159 316.6H250.277L247.001 310.314V318H245.825Z" fill="#808191"/>
<path d="M294.368 318.168C293.696 318.168 293.113 318.047 292.618 317.804C292.123 317.561 291.727 317.23 291.428 316.81C291.139 316.381 290.961 315.895 290.896 315.354H292.044C292.156 315.895 292.417 316.334 292.828 316.67C293.239 316.997 293.757 317.16 294.382 317.16C294.849 317.16 295.25 317.053 295.586 316.838C295.922 316.614 296.179 316.315 296.356 315.942C296.543 315.569 296.636 315.153 296.636 314.696C296.636 313.968 296.431 313.38 296.02 312.932C295.609 312.484 295.077 312.26 294.424 312.26C293.883 312.26 293.421 312.381 293.038 312.624C292.655 312.867 292.375 313.184 292.198 313.576H291.078L291.918 308.2H297.056V309.222H292.828L292.254 312.204C292.478 311.933 292.786 311.709 293.178 311.532C293.579 311.355 294.037 311.266 294.55 311.266C295.194 311.266 295.754 311.415 296.23 311.714C296.715 312.013 297.093 312.419 297.364 312.932C297.635 313.445 297.77 314.029 297.77 314.682C297.77 315.307 297.635 315.886 297.364 316.418C297.103 316.95 296.715 317.375 296.202 317.692C295.698 318.009 295.087 318.168 294.368 318.168ZM303.313 318V308.2H306.533C307.299 308.2 307.929 308.326 308.423 308.578C308.918 308.83 309.282 309.171 309.515 309.6C309.758 310.029 309.879 310.515 309.879 311.056C309.879 311.588 309.763 312.069 309.529 312.498C309.296 312.927 308.932 313.273 308.437 313.534C307.943 313.786 307.308 313.912 306.533 313.912H304.489V318H303.313ZM304.489 312.918H306.505C307.289 312.918 307.845 312.755 308.171 312.428C308.507 312.092 308.675 311.635 308.675 311.056C308.675 310.468 308.507 310.011 308.171 309.684C307.845 309.348 307.289 309.18 306.505 309.18H304.489V312.918ZM311.421 318V308.2H312.793L316.321 315.032L319.821 308.2H321.207V318H320.031V310.3L316.755 316.6H315.873L312.597 310.314V318H311.421Z" fill="#808191"/>
<path d="M360.064 318.168C359.355 318.168 358.757 318.037 358.272 317.776C357.787 317.505 357.395 317.146 357.096 316.698C356.807 316.25 356.592 315.751 356.452 315.2C356.321 314.64 356.256 314.071 356.256 313.492C356.256 312.409 356.405 311.462 356.704 310.65C357.003 309.829 357.432 309.189 357.992 308.732C358.561 308.265 359.247 308.032 360.05 308.032C360.666 308.032 361.193 308.153 361.632 308.396C362.071 308.639 362.416 308.965 362.668 309.376C362.929 309.777 363.093 310.225 363.158 310.72H362.066C361.963 310.188 361.735 309.777 361.38 309.488C361.025 309.199 360.577 309.054 360.036 309.054C359.299 309.054 358.678 309.404 358.174 310.104C357.679 310.795 357.413 311.877 357.376 313.352C357.6 312.913 357.955 312.535 358.44 312.218C358.935 311.891 359.527 311.728 360.218 311.728C360.778 311.728 361.301 311.859 361.786 312.12C362.281 312.381 362.682 312.75 362.99 313.226C363.298 313.693 363.452 314.243 363.452 314.878C363.452 315.429 363.317 315.956 363.046 316.46C362.775 316.964 362.383 317.375 361.87 317.692C361.366 318.009 360.764 318.168 360.064 318.168ZM359.98 317.132C360.419 317.132 360.811 317.039 361.156 316.852C361.501 316.665 361.772 316.409 361.968 316.082C362.164 315.746 362.262 315.363 362.262 314.934C362.262 314.271 362.043 313.744 361.604 313.352C361.175 312.951 360.633 312.75 359.98 312.75C359.541 312.75 359.149 312.853 358.804 313.058C358.459 313.254 358.183 313.52 357.978 313.856C357.782 314.192 357.684 314.556 357.684 314.948C357.684 315.368 357.782 315.746 357.978 316.082C358.183 316.409 358.459 316.665 358.804 316.852C359.149 317.039 359.541 317.132 359.98 317.132ZM369.059 318V308.2H372.279C373.045 308.2 373.675 308.326 374.169 308.578C374.664 308.83 375.028 309.171 375.261 309.6C375.504 310.029 375.625 310.515 375.625 311.056C375.625 311.588 375.509 312.069 375.275 312.498C375.042 312.927 374.678 313.273 374.183 313.534C373.689 313.786 373.054 313.912 372.279 313.912H370.235V318H369.059ZM370.235 312.918H372.251C373.035 312.918 373.591 312.755 373.917 312.428C374.253 312.092 374.421 311.635 374.421 311.056C374.421 310.468 374.253 310.011 373.917 309.684C373.591 309.348 373.035 309.18 372.251 309.18H370.235V312.918ZM377.167 318V308.2H378.539L382.067 315.032L385.567 308.2H386.953V318H385.777V310.3L382.501 316.6H381.619L378.343 310.314V318H377.167Z" fill="#808191"/>
<path d="M422.848 318L426.74 309.208H421.364V308.2H427.944V309.082L424.094 318H422.848ZM433.206 318V308.2H436.426C437.191 308.2 437.821 308.326 438.316 308.578C438.811 308.83 439.175 309.171 439.408 309.6C439.651 310.029 439.772 310.515 439.772 311.056C439.772 311.588 439.655 312.069 439.422 312.498C439.189 312.927 438.825 313.273 438.33 313.534C437.835 313.786 437.201 313.912 436.426 313.912H434.382V318H433.206ZM434.382 312.918H436.398C437.182 312.918 437.737 312.755 438.064 312.428C438.4 312.092 438.568 311.635 438.568 311.056C438.568 310.468 438.4 310.011 438.064 309.684C437.737 309.348 437.182 309.18 436.398 309.18H434.382V312.918ZM441.313 318V308.2H442.685L446.213 315.032L449.713 308.2H451.099V318H449.923V310.3L446.647 316.6H445.765L442.489 310.314V318H441.313Z" fill="#808191"/>
<g filter="url(#filter0_d_87_1941)">
<rect x="182" y="146" width="58" height="31" rx="5" fill="#282B32" shape-rendering="crispEdges"/>
<path d="M191.44 158V152.46L190.29 152.73V151.75L191.98 151H192.77V158H191.44ZM196.51 158V151H199.1C199.66 151 200.123 151.093 200.49 151.28C200.857 151.467 201.13 151.723 201.31 152.05C201.49 152.377 201.58 152.743 201.58 153.15C201.58 153.537 201.493 153.893 201.32 154.22C201.147 154.54 200.877 154.8 200.51 155C200.143 155.193 199.673 155.29 199.1 155.29H197.79V158H196.51ZM197.79 154.25H199.02C199.467 154.25 199.787 154.153 199.98 153.96C200.18 153.76 200.28 153.49 200.28 153.15C200.28 152.803 200.18 152.533 199.98 152.34C199.787 152.14 199.467 152.04 199.02 152.04H197.79V154.25ZM202.584 158V151H204.104L206.334 155.44L208.534 151H210.054V158H208.774V153.17L206.824 157H205.814L203.864 153.17V158H202.584Z" fill="white"/>
<circle cx="193" cy="168.5" r="3" fill="#2884FF"/>
<path d="M200.44 172V166.46L199.29 166.73V165.75L200.98 165H201.77V172H200.44ZM205.637 172.12C205.124 172.12 204.681 172.03 204.307 171.85C203.941 171.67 203.651 171.423 203.437 171.11C203.231 170.79 203.111 170.43 203.077 170.03H204.327C204.387 170.317 204.534 170.557 204.767 170.75C205.001 170.937 205.291 171.03 205.637 171.03C206.011 171.03 206.314 170.893 206.547 170.62C206.787 170.347 206.907 170.007 206.907 169.6C206.907 169.18 206.787 168.847 206.547 168.6C206.314 168.353 206.017 168.23 205.657 168.23C205.357 168.23 205.097 168.303 204.877 168.45C204.657 168.597 204.501 168.78 204.407 169H203.177L203.777 165H207.657V166.12H204.737L204.417 167.74C204.564 167.58 204.764 167.45 205.017 167.35C205.271 167.243 205.554 167.19 205.867 167.19C206.367 167.19 206.784 167.303 207.117 167.53C207.451 167.75 207.704 168.043 207.877 168.41C208.051 168.77 208.137 169.163 208.137 169.59C208.137 170.077 208.031 170.51 207.817 170.89C207.611 171.27 207.317 171.57 206.937 171.79C206.564 172.01 206.131 172.12 205.637 172.12ZM209.641 172L212.281 166.09H208.831V165H213.601V165.91L210.971 172H209.641ZM214.552 172V164.8H215.832V169.05L217.592 167.04H219.112L217.082 169.3L219.442 172H217.842L215.832 169.51V172H214.552Z" fill="white"/>
</g>
<defs>
<filter id="filter0_d_87_1941" x="168" y="136" width="86" height="59" filterUnits="userSpaceOnUse" color-interpolation-filters="sRGB">
<feFlood flood-opacity="0" result="BackgroundImageFix"/>
<feColorMatrix in="SourceAlpha" type="matrix" values="0 0 0 0 0 0 0 0 0 0 0 0 0 0 0 0 0 0 127 0" result="hardAlpha"/>
<feOffset dy="4"/>
<feGaussianBlur stdDeviation="7"/>
<feComposite in2="hardAlpha" operator="out"/>
<feColorMatrix type="matrix" values="0 0 0 0 0 0 0 0 0 0 0 0 0 0 0 0 0 0 0.14 0"/>
<feBlend mode="normal" in2="BackgroundImageFix" result="effect1_dropShadow_87_1941"/>
<feBlend mode="normal" in="SourceGraphic" in2="effect1_dropShadow_87_1941" result="shape"/>
</filter>
</defs>
</svg>
