<svg width="498" height="332" viewBox="0 0 498 332" fill="none" xmlns="http://www.w3.org/2000/svg">
<rect width="498" height="332" rx="14" fill="white"/>
<path d="M31.7 41.74C30.2867 41.74 29.0733 41.44 28.06 40.84C27.0467 40.2267 26.2667 39.38 25.72 38.3C25.1733 37.2067 24.9 35.9467 24.9 34.52C24.9 33.0933 25.1733 31.8333 25.72 30.74C26.2667 29.6467 27.0467 28.7933 28.06 28.18C29.0733 27.5667 30.2867 27.26 31.7 27.26C33.38 27.26 34.7533 27.68 35.82 28.52C36.9 29.3467 37.5733 30.5133 37.84 32.02H35.02C34.8467 31.26 34.4733 30.6667 33.9 30.24C33.34 29.8 32.5933 29.58 31.66 29.58C30.3667 29.58 29.3533 30.02 28.62 30.9C27.8867 31.78 27.52 32.9867 27.52 34.52C27.52 36.0533 27.8867 37.26 28.62 38.14C29.3533 39.0067 30.3667 39.44 31.66 39.44C32.5933 39.44 33.34 39.24 33.9 38.84C34.4733 38.4267 34.8467 37.86 35.02 37.14H37.84C37.5733 38.58 36.9 39.7067 35.82 40.52C34.7533 41.3333 33.38 41.74 31.7 41.74ZM43.4661 41.74C42.6128 41.74 41.9128 41.6067 41.3661 41.34C40.8194 41.06 40.4128 40.6933 40.1461 40.24C39.8794 39.7867 39.7461 39.2867 39.7461 38.74C39.7461 37.82 40.1061 37.0733 40.8261 36.5C41.5461 35.9267 42.6261 35.64 44.0661 35.64H46.5861V35.4C46.5861 34.72 46.3928 34.22 46.0061 33.9C45.6194 33.58 45.1394 33.42 44.5661 33.42C44.0461 33.42 43.5928 33.5467 43.2061 33.8C42.8194 34.04 42.5794 34.4 42.4861 34.88H39.9861C40.0528 34.16 40.2928 33.5333 40.7061 33C41.1328 32.4667 41.6794 32.06 42.3461 31.78C43.0128 31.4867 43.7594 31.34 44.5861 31.34C45.9994 31.34 47.1128 31.6933 47.9261 32.4C48.7394 33.1067 49.1461 34.1067 49.1461 35.4V41.5H46.9661L46.7261 39.9C46.4328 40.4333 46.0194 40.8733 45.4861 41.22C44.9661 41.5667 44.2928 41.74 43.4661 41.74ZM44.0461 39.74C44.7794 39.74 45.3461 39.5 45.7461 39.02C46.1594 38.54 46.4194 37.9467 46.5261 37.24H44.3461C43.6661 37.24 43.1794 37.3667 42.8861 37.62C42.5928 37.86 42.4461 38.16 42.4461 38.52C42.4461 38.9067 42.5928 39.2067 42.8861 39.42C43.1794 39.6333 43.5661 39.74 44.0461 39.74ZM51.5891 41.5V31.58H53.8691L54.1091 33.44C54.4691 32.8 54.9557 32.2933 55.5691 31.92C56.1957 31.5333 56.9291 31.34 57.7691 31.34V34.04H57.0491C56.4891 34.04 55.9891 34.1267 55.5491 34.3C55.1091 34.4733 54.7624 34.7733 54.5091 35.2C54.2691 35.6267 54.1491 36.22 54.1491 36.98V41.5H51.5891ZM68.9244 41.74C67.8977 41.74 67.0044 41.5533 66.2444 41.18C65.4844 40.8067 64.8977 40.2867 64.4844 39.62C64.071 38.9533 63.8644 38.18 63.8644 37.3H65.6244C65.6244 37.8467 65.751 38.3533 66.0044 38.82C66.2577 39.2733 66.6244 39.64 67.1044 39.92C67.5977 40.1867 68.2044 40.32 68.9244 40.32C69.871 40.32 70.6044 40.0933 71.1244 39.64C71.6444 39.1867 71.9044 38.62 71.9044 37.94C71.9044 37.38 71.7844 36.9333 71.5444 36.6C71.3044 36.2533 70.9777 35.9733 70.5644 35.76C70.1644 35.5467 69.6977 35.36 69.1644 35.2C68.6444 35.04 68.0977 34.86 67.5244 34.66C66.4444 34.2867 65.6444 33.8267 65.1244 33.28C64.6044 32.72 64.3444 31.9933 64.3444 31.1C64.331 30.3533 64.5044 29.6933 64.8644 29.12C65.2244 28.5333 65.731 28.08 66.3844 27.76C67.051 27.4267 67.8377 27.26 68.7444 27.26C69.6377 27.26 70.411 27.4267 71.0644 27.76C71.731 28.0933 72.2444 28.5533 72.6044 29.14C72.9777 29.7267 73.171 30.3933 73.1844 31.14H71.4244C71.4244 30.7533 71.3244 30.3733 71.1244 30C70.9244 29.6133 70.6177 29.3 70.2044 29.06C69.8044 28.82 69.2977 28.7 68.6844 28.7C67.9244 28.6867 67.2977 28.88 66.8044 29.28C66.3244 29.68 66.0844 30.2333 66.0844 30.94C66.0844 31.54 66.251 32 66.5844 32.32C66.931 32.64 67.411 32.9067 68.0244 33.12C68.6377 33.32 69.3444 33.5533 70.1444 33.82C70.811 34.06 71.411 34.34 71.9444 34.66C72.4777 34.98 72.891 35.3933 73.1844 35.9C73.491 36.4067 73.6444 37.0533 73.6444 37.84C73.6444 38.5067 73.471 39.14 73.1244 39.74C72.7777 40.3267 72.251 40.8067 71.5444 41.18C70.851 41.5533 69.9777 41.74 68.9244 41.74ZM79.8469 41.5C78.9402 41.5 78.2269 41.28 77.7069 40.84C77.1869 40.4 76.9269 39.6067 76.9269 38.46V33H75.2069V31.58H76.9269L77.1469 29.2H78.6069V31.58H81.5269V33H78.6069V38.46C78.6069 39.0867 78.7335 39.5133 78.9869 39.74C79.2402 39.9533 79.6869 40.06 80.3269 40.06H81.3669V41.5H79.8469ZM86.9613 41.74C86.1346 41.74 85.4479 41.6 84.9013 41.32C84.3546 41.04 83.9479 40.6667 83.6813 40.2C83.4146 39.7333 83.2813 39.2267 83.2813 38.68C83.2813 37.6667 83.6679 36.8867 84.4413 36.34C85.2146 35.7933 86.2679 35.52 87.6013 35.52H90.2813V35.4C90.2813 34.5333 90.0546 33.88 89.6013 33.44C89.1479 32.9867 88.5413 32.76 87.7813 32.76C87.1279 32.76 86.5613 32.9267 86.0813 33.26C85.6146 33.58 85.3213 34.0533 85.2013 34.68H83.4813C83.5479 33.96 83.7879 33.3533 84.2013 32.86C84.6279 32.3667 85.1546 31.9933 85.7813 31.74C86.4079 31.4733 87.0746 31.34 87.7813 31.34C89.1679 31.34 90.2079 31.7133 90.9013 32.46C91.6079 33.1933 91.9613 34.1733 91.9613 35.4V41.5H90.4613L90.3613 39.72C90.0813 40.28 89.6679 40.76 89.1213 41.16C88.5879 41.5467 87.8679 41.74 86.9613 41.74ZM87.2213 40.32C87.8613 40.32 88.4079 40.1533 88.8613 39.82C89.3279 39.4867 89.6813 39.0533 89.9213 38.52C90.1613 37.9867 90.2813 37.4267 90.2813 36.84V36.82H87.7413C86.7546 36.82 86.0546 36.9933 85.6413 37.34C85.2413 37.6733 85.0413 38.0933 85.0413 38.6C85.0413 39.12 85.2279 39.54 85.6013 39.86C85.9879 40.1667 86.5279 40.32 87.2213 40.32ZM98.1281 41.5C97.2215 41.5 96.5081 41.28 95.9881 40.84C95.4681 40.4 95.2081 39.6067 95.2081 38.46V33H93.4881V31.58H95.2081L95.4281 29.2H96.8881V31.58H99.8081V33H96.8881V38.46C96.8881 39.0867 97.0148 39.5133 97.2681 39.74C97.5215 39.9533 97.9681 40.06 98.6081 40.06H99.6481V41.5H98.1281ZM102.963 29.38C102.629 29.38 102.349 29.2733 102.123 29.06C101.909 28.8333 101.803 28.5533 101.803 28.22C101.803 27.9 101.909 27.6333 102.123 27.42C102.349 27.2067 102.629 27.1 102.963 27.1C103.283 27.1 103.556 27.2067 103.783 27.42C104.009 27.6333 104.123 27.9 104.123 28.22C104.123 28.5533 104.009 28.8333 103.783 29.06C103.556 29.2733 103.283 29.38 102.963 29.38ZM102.123 41.5V31.58H103.803V41.5H102.123ZM110.528 41.74C109.341 41.74 108.354 41.44 107.568 40.84C106.781 40.24 106.321 39.4267 106.188 38.4H107.908C108.014 38.92 108.288 39.3733 108.728 39.76C109.181 40.1333 109.788 40.32 110.548 40.32C111.254 40.32 111.774 40.1733 112.108 39.88C112.441 39.5733 112.608 39.2133 112.608 38.8C112.608 38.2 112.388 37.8 111.948 37.6C111.521 37.4 110.914 37.22 110.128 37.06C109.594 36.9533 109.061 36.8 108.528 36.6C107.994 36.4 107.548 36.12 107.188 35.76C106.828 35.3867 106.648 34.9 106.648 34.3C106.648 33.4333 106.968 32.7267 107.608 32.18C108.261 31.62 109.141 31.34 110.248 31.34C111.301 31.34 112.161 31.6067 112.828 32.14C113.508 32.66 113.901 33.4067 114.008 34.38H112.348C112.281 33.8733 112.061 33.48 111.688 33.2C111.328 32.9067 110.841 32.76 110.228 32.76C109.628 32.76 109.161 32.8867 108.828 33.14C108.508 33.3933 108.348 33.7267 108.348 34.14C108.348 34.54 108.554 34.8533 108.968 35.08C109.394 35.3067 109.968 35.5 110.688 35.66C111.301 35.7933 111.881 35.96 112.428 36.16C112.988 36.3467 113.441 36.6333 113.788 37.02C114.148 37.3933 114.328 37.94 114.328 38.66C114.341 39.5533 114.001 40.2933 113.308 40.88C112.628 41.4533 111.701 41.74 110.528 41.74ZM120.198 41.5C119.292 41.5 118.578 41.28 118.058 40.84C117.538 40.4 117.278 39.6067 117.278 38.46V33H115.558V31.58H117.278L117.498 29.2H118.958V31.58H121.878V33H118.958V38.46C118.958 39.0867 119.085 39.5133 119.338 39.74C119.592 39.9533 120.038 40.06 120.678 40.06H121.718V41.5H120.198ZM125.033 29.38C124.699 29.38 124.419 29.2733 124.193 29.06C123.979 28.8333 123.873 28.5533 123.873 28.22C123.873 27.9 123.979 27.6333 124.193 27.42C124.419 27.2067 124.699 27.1 125.033 27.1C125.353 27.1 125.626 27.2067 125.853 27.42C126.079 27.6333 126.193 27.9 126.193 28.22C126.193 28.5533 126.079 28.8333 125.853 29.06C125.626 29.2733 125.353 29.38 125.033 29.38ZM124.193 41.5V31.58H125.873V41.5H124.193ZM133.358 41.74C132.411 41.74 131.558 41.5267 130.798 41.1C130.051 40.66 129.458 40.0533 129.018 39.28C128.591 38.4933 128.378 37.58 128.378 36.54C128.378 35.5 128.591 34.5933 129.018 33.82C129.458 33.0333 130.051 32.4267 130.798 32C131.558 31.56 132.411 31.34 133.358 31.34C134.531 31.34 135.518 31.6467 136.318 32.26C137.131 32.8733 137.645 33.6933 137.858 34.72H136.138C136.005 34.1067 135.678 33.6333 135.158 33.3C134.638 32.9533 134.031 32.78 133.338 32.78C132.778 32.78 132.251 32.92 131.758 33.2C131.265 33.48 130.865 33.9 130.558 34.46C130.251 35.02 130.098 35.7133 130.098 36.54C130.098 37.3667 130.251 38.06 130.558 38.62C130.865 39.18 131.265 39.6067 131.758 39.9C132.251 40.18 132.778 40.32 133.338 40.32C134.031 40.32 134.638 40.1533 135.158 39.82C135.678 39.4733 136.005 38.9867 136.138 38.36H137.858C137.658 39.36 137.151 40.1733 136.338 40.8C135.525 41.4267 134.531 41.74 133.358 41.74ZM144.004 41.74C142.818 41.74 141.831 41.44 141.044 40.84C140.258 40.24 139.798 39.4267 139.664 38.4H141.384C141.491 38.92 141.764 39.3733 142.204 39.76C142.658 40.1333 143.264 40.32 144.024 40.32C144.731 40.32 145.251 40.1733 145.584 39.88C145.918 39.5733 146.084 39.2133 146.084 38.8C146.084 38.2 145.864 37.8 145.424 37.6C144.998 37.4 144.391 37.22 143.604 37.06C143.071 36.9533 142.538 36.8 142.004 36.6C141.471 36.4 141.024 36.12 140.664 35.76C140.304 35.3867 140.124 34.9 140.124 34.3C140.124 33.4333 140.444 32.7267 141.084 32.18C141.738 31.62 142.618 31.34 143.724 31.34C144.778 31.34 145.638 31.6067 146.304 32.14C146.984 32.66 147.378 33.4067 147.484 34.38H145.824C145.758 33.8733 145.538 33.48 145.164 33.2C144.804 32.9067 144.318 32.76 143.704 32.76C143.104 32.76 142.638 32.8867 142.304 33.14C141.984 33.3933 141.824 33.7267 141.824 34.14C141.824 34.54 142.031 34.8533 142.444 35.08C142.871 35.3067 143.444 35.5 144.164 35.66C144.778 35.7933 145.358 35.96 145.904 36.16C146.464 36.3467 146.918 36.6333 147.264 37.02C147.624 37.3933 147.804 37.94 147.804 38.66C147.818 39.5533 147.478 40.2933 146.784 40.88C146.104 41.4533 145.178 41.74 144.004 41.74Z" fill="#242731"/>
<path d="M24.714 81.5V80.198C25.3113 79.7033 25.89 79.2133 26.45 78.728C27.0193 78.2427 27.5233 77.762 27.962 77.286C28.41 76.81 28.7647 76.348 29.026 75.9C29.2967 75.4427 29.432 74.9993 29.432 74.57C29.432 74.1687 29.32 73.814 29.096 73.506C28.8813 73.198 28.522 73.044 28.018 73.044C27.5047 73.044 27.1173 73.212 26.856 73.548C26.5947 73.884 26.464 74.29 26.464 74.766H24.728C24.7467 74.0473 24.9053 73.45 25.204 72.974C25.5027 72.4887 25.8993 72.1293 26.394 71.896C26.8887 71.6533 27.444 71.532 28.06 71.532C29.0587 71.532 29.8333 71.8073 30.384 72.358C30.944 72.8993 31.224 73.604 31.224 74.472C31.224 75.0133 31.098 75.5407 30.846 76.054C30.6033 76.5673 30.2813 77.062 29.88 77.538C29.4787 78.014 29.0447 78.462 28.578 78.882C28.1113 79.2927 27.6587 79.6753 27.22 80.03H31.462V81.5H24.714ZM36.8997 81.668C35.9944 81.668 35.2197 81.458 34.5757 81.038C33.9317 80.6087 33.4324 80.016 33.0777 79.26C32.7324 78.4947 32.5597 77.608 32.5597 76.6C32.5597 75.6013 32.7324 74.7193 33.0777 73.954C33.4324 73.1887 33.9317 72.596 34.5757 72.176C35.2197 71.7467 35.9944 71.532 36.8997 71.532C37.805 71.532 38.5797 71.7467 39.2237 72.176C39.8677 72.596 40.3624 73.1887 40.7077 73.954C41.0624 74.7193 41.2397 75.6013 41.2397 76.6C41.2397 77.608 41.0624 78.4947 40.7077 79.26C40.3624 80.016 39.8677 80.6087 39.2237 81.038C38.5797 81.458 37.805 81.668 36.8997 81.668ZM36.8997 80.058C37.637 80.058 38.239 79.75 38.7057 79.134C39.1724 78.518 39.4057 77.6733 39.4057 76.6C39.4057 75.5267 39.1724 74.682 38.7057 74.066C38.239 73.45 37.637 73.142 36.8997 73.142C36.153 73.142 35.5464 73.45 35.0797 74.066C34.6224 74.682 34.3937 75.5267 34.3937 76.6C34.3937 77.6733 34.6224 78.518 35.0797 79.134C35.5464 79.75 36.153 80.058 36.8997 80.058ZM46.1571 81.5V71.7H52.4851V73.142H47.9491V75.886H51.6171V77.3H47.9491V81.5H46.1571ZM56.8309 81.668C56.1309 81.668 55.5102 81.5187 54.9689 81.22C54.4275 80.9213 54.0029 80.5013 53.6949 79.96C53.3869 79.4187 53.2329 78.7933 53.2329 78.084C53.2329 77.3653 53.3822 76.726 53.6809 76.166C53.9889 75.606 54.4089 75.172 54.9409 74.864C55.4822 74.5467 56.1169 74.388 56.8449 74.388C57.5262 74.388 58.1282 74.5373 58.6509 74.836C59.1735 75.1347 59.5795 75.5453 59.8689 76.068C60.1675 76.5813 60.3169 77.1553 60.3169 77.79C60.3169 77.8927 60.3122 78 60.3029 78.112C60.3029 78.224 60.2982 78.3407 60.2889 78.462H55.0109C55.0482 79.0033 55.2349 79.428 55.5709 79.736C55.9162 80.044 56.3315 80.198 56.8169 80.198C57.1809 80.198 57.4842 80.1187 57.7269 79.96C57.9789 79.792 58.1655 79.5773 58.2869 79.316H60.1069C59.9762 79.7547 59.7569 80.156 59.4489 80.52C59.1502 80.8747 58.7769 81.1547 58.3289 81.36C57.8902 81.5653 57.3909 81.668 56.8309 81.668ZM56.8449 75.844C56.4062 75.844 56.0189 75.97 55.6829 76.222C55.3469 76.4647 55.1322 76.838 55.0389 77.342H58.4969C58.4689 76.8847 58.3009 76.5207 57.9929 76.25C57.6849 75.9793 57.3022 75.844 56.8449 75.844ZM65.9401 81.668C65.4174 81.668 64.9601 81.57 64.5681 81.374C64.1761 81.178 63.8587 80.9027 63.6161 80.548L63.4201 81.5H61.8241V71.42H63.6161V75.55C63.8401 75.242 64.1341 74.9713 64.4981 74.738C64.8714 74.5047 65.3521 74.388 65.9401 74.388C66.5934 74.388 67.1767 74.5467 67.6901 74.864C68.2034 75.1813 68.6094 75.6153 68.9081 76.166C69.2067 76.7167 69.3561 77.342 69.3561 78.042C69.3561 78.742 69.2067 79.3673 68.9081 79.918C68.6094 80.4593 68.2034 80.8887 67.6901 81.206C67.1767 81.514 66.5934 81.668 65.9401 81.668ZM65.5621 80.1C66.1314 80.1 66.6027 79.9087 66.9761 79.526C67.3494 79.1433 67.5361 78.6487 67.5361 78.042C67.5361 77.4353 67.3494 76.936 66.9761 76.544C66.6027 76.152 66.1314 75.956 65.5621 75.956C64.9834 75.956 64.5074 76.152 64.1341 76.544C63.7701 76.9267 63.5881 77.4213 63.5881 78.028C63.5881 78.6347 63.7701 79.134 64.1341 79.526C64.5074 79.9087 64.9834 80.1 65.5621 80.1ZM70.9569 81.5V74.556H72.5529L72.7209 75.858C72.9729 75.41 73.3135 75.0553 73.7429 74.794C74.1815 74.5233 74.6949 74.388 75.2829 74.388V76.278H74.7789C74.3869 76.278 74.0369 76.3387 73.7289 76.46C73.4209 76.5813 73.1782 76.7913 73.0009 77.09C72.8329 77.3887 72.7489 77.804 72.7489 78.336V81.5H70.9569ZM79.1117 81.668C78.2437 81.668 77.5717 81.3973 77.0957 80.856C76.629 80.3147 76.3957 79.5213 76.3957 78.476V74.556H78.1737V78.308C78.1737 78.9053 78.295 79.3627 78.5377 79.68C78.7803 79.9973 79.163 80.156 79.6857 80.156C80.1803 80.156 80.5863 79.9787 80.9037 79.624C81.2303 79.2693 81.3937 78.7747 81.3937 78.14V74.556H83.1857V81.5H81.6037L81.4637 80.324C81.249 80.7347 80.9363 81.0613 80.5257 81.304C80.1243 81.5467 79.653 81.668 79.1117 81.668ZM87.4192 81.668C86.8219 81.668 86.3319 81.5747 85.9492 81.388C85.5666 81.192 85.2819 80.9353 85.0952 80.618C84.9086 80.3007 84.8152 79.9507 84.8152 79.568C84.8152 78.924 85.0672 78.4013 85.5712 78C86.0752 77.5987 86.8312 77.398 87.8392 77.398H89.6032V77.23C89.6032 76.754 89.4679 76.404 89.1972 76.18C88.9266 75.956 88.5906 75.844 88.1892 75.844C87.8252 75.844 87.5079 75.9327 87.2372 76.11C86.9666 76.278 86.7986 76.53 86.7332 76.866H84.9832C85.0299 76.362 85.1979 75.9233 85.4872 75.55C85.7859 75.1767 86.1686 74.892 86.6352 74.696C87.1019 74.4907 87.6246 74.388 88.2032 74.388C89.1926 74.388 89.9719 74.6353 90.5412 75.13C91.1106 75.6247 91.3952 76.3247 91.3952 77.23V81.5H89.8692L89.7012 80.38C89.4959 80.7533 89.2066 81.0613 88.8332 81.304C88.4692 81.5467 87.9979 81.668 87.4192 81.668ZM87.8252 80.268C88.3386 80.268 88.7352 80.1 89.0152 79.764C89.3046 79.428 89.4866 79.0127 89.5612 78.518H88.0352C87.5592 78.518 87.2186 78.6067 87.0132 78.784C86.8079 78.952 86.7052 79.162 86.7052 79.414C86.7052 79.6847 86.8079 79.8947 87.0132 80.044C87.2186 80.1933 87.4892 80.268 87.8252 80.268ZM93.1053 81.5V74.556H94.7013L94.8693 75.858C95.1213 75.41 95.462 75.0553 95.8913 74.794C96.33 74.5233 96.8433 74.388 97.4313 74.388V76.278H96.9273C96.5353 76.278 96.1853 76.3387 95.8773 76.46C95.5693 76.5813 95.3266 76.7913 95.1493 77.09C94.9813 77.3887 94.8973 77.804 94.8973 78.336V81.5H93.1053ZM99.5241 84.58L101.134 81.038H100.714L98.0121 74.556H99.9581L101.904 79.442L103.934 74.556H105.838L101.428 84.58H99.5241ZM110.15 81.5V80.198C110.747 79.7033 111.326 79.2133 111.886 78.728C112.455 78.2427 112.959 77.762 113.398 77.286C113.846 76.81 114.2 76.348 114.462 75.9C114.732 75.4427 114.868 74.9993 114.868 74.57C114.868 74.1687 114.756 73.814 114.532 73.506C114.317 73.198 113.958 73.044 113.454 73.044C112.94 73.044 112.553 73.212 112.292 73.548C112.03 73.884 111.9 74.29 111.9 74.766H110.164C110.182 74.0473 110.341 73.45 110.64 72.974C110.938 72.4887 111.335 72.1293 111.83 71.896C112.324 71.6533 112.88 71.532 113.496 71.532C114.494 71.532 115.269 71.8073 115.82 72.358C116.38 72.8993 116.66 73.604 116.66 74.472C116.66 75.0133 116.534 75.5407 116.282 76.054C116.039 76.5673 115.717 77.062 115.316 77.538C114.914 78.014 114.48 78.462 114.014 78.882C113.547 79.2927 113.094 79.6753 112.656 80.03H116.898V81.5H110.15ZM122.335 81.668C121.43 81.668 120.655 81.458 120.011 81.038C119.367 80.6087 118.868 80.016 118.513 79.26C118.168 78.4947 117.995 77.608 117.995 76.6C117.995 75.6013 118.168 74.7193 118.513 73.954C118.868 73.1887 119.367 72.596 120.011 72.176C120.655 71.7467 121.43 71.532 122.335 71.532C123.241 71.532 124.015 71.7467 124.659 72.176C125.303 72.596 125.798 73.1887 126.143 73.954C126.498 74.7193 126.675 75.6013 126.675 76.6C126.675 77.608 126.498 78.4947 126.143 79.26C125.798 80.016 125.303 80.6087 124.659 81.038C124.015 81.458 123.241 81.668 122.335 81.668ZM122.335 80.058C123.073 80.058 123.675 79.75 124.141 79.134C124.608 78.518 124.841 77.6733 124.841 76.6C124.841 75.5267 124.608 74.682 124.141 74.066C123.675 73.45 123.073 73.142 122.335 73.142C121.589 73.142 120.982 73.45 120.515 74.066C120.058 74.682 119.829 75.5267 119.829 76.6C119.829 77.6733 120.058 78.518 120.515 79.134C120.982 79.75 121.589 80.058 122.335 80.058ZM127.95 81.5V80.198C128.548 79.7033 129.126 79.2133 129.686 78.728C130.256 78.2427 130.76 77.762 131.198 77.286C131.646 76.81 132.001 76.348 132.262 75.9C132.533 75.4427 132.668 74.9993 132.668 74.57C132.668 74.1687 132.556 73.814 132.332 73.506C132.118 73.198 131.758 73.044 131.254 73.044C130.741 73.044 130.354 73.212 130.092 73.548C129.831 73.884 129.7 74.29 129.7 74.766H127.964C127.983 74.0473 128.142 73.45 128.44 72.974C128.739 72.4887 129.136 72.1293 129.63 71.896C130.125 71.6533 130.68 71.532 131.296 71.532C132.295 71.532 133.07 71.8073 133.62 72.358C134.18 72.8993 134.46 73.604 134.46 74.472C134.46 75.0133 134.334 75.5407 134.082 76.054C133.84 76.5673 133.518 77.062 133.116 77.538C132.715 78.014 132.281 78.462 131.814 78.882C131.348 79.2927 130.895 79.6753 130.456 80.03H134.698V81.5H127.95ZM135.948 81.5V80.198C136.546 79.7033 137.124 79.2133 137.684 78.728C138.254 78.2427 138.758 77.762 139.196 77.286C139.644 76.81 139.999 76.348 140.26 75.9C140.531 75.4427 140.666 74.9993 140.666 74.57C140.666 74.1687 140.554 73.814 140.33 73.506C140.116 73.198 139.756 73.044 139.252 73.044C138.739 73.044 138.352 73.212 138.09 73.548C137.829 73.884 137.698 74.29 137.698 74.766H135.962C135.981 74.0473 136.14 73.45 136.438 72.974C136.737 72.4887 137.134 72.1293 137.628 71.896C138.123 71.6533 138.678 71.532 139.294 71.532C140.293 71.532 141.068 71.8073 141.618 72.358C142.178 72.8993 142.458 73.604 142.458 74.472C142.458 75.0133 142.332 75.5407 142.08 76.054C141.838 76.5673 141.516 77.062 141.114 77.538C140.713 78.014 140.279 78.462 139.812 78.882C139.346 79.2927 138.893 79.6753 138.454 80.03H142.696V81.5H135.948Z" fill="#5F6165"/>
<rect x="307" y="67.5" width="167" height="20" rx="10" fill="#F5F4F6"/>
<rect x="307" y="67.5" width="43" height="20" rx="10" fill="#FF764C"/>
<path d="M319.68 81V74H322.07C322.89 74 323.563 74.1467 324.09 74.44C324.623 74.7267 325.017 75.1333 325.27 75.66C325.53 76.18 325.66 76.7933 325.66 77.5C325.66 78.2067 325.53 78.8233 325.27 79.35C325.017 79.87 324.623 80.2767 324.09 80.57C323.563 80.8567 322.89 81 322.07 81H319.68ZM320.96 79.9H322.01C322.597 79.9 323.06 79.8067 323.4 79.62C323.74 79.4267 323.983 79.1533 324.13 78.8C324.277 78.44 324.35 78.0067 324.35 77.5C324.35 77 324.277 76.57 324.13 76.21C323.983 75.85 323.74 75.5733 323.4 75.38C323.06 75.1867 322.597 75.09 322.01 75.09H320.96V79.9ZM328.469 81.12C328.043 81.12 327.693 81.0533 327.419 80.92C327.146 80.78 326.943 80.5967 326.809 80.37C326.676 80.1433 326.609 79.8933 326.609 79.62C326.609 79.16 326.789 78.7867 327.149 78.5C327.509 78.2133 328.049 78.07 328.769 78.07H330.029V77.95C330.029 77.61 329.933 77.36 329.739 77.2C329.546 77.04 329.306 76.96 329.019 76.96C328.759 76.96 328.533 77.0233 328.339 77.15C328.146 77.27 328.026 77.45 327.979 77.69H326.729C326.763 77.33 326.883 77.0167 327.089 76.75C327.303 76.4833 327.576 76.28 327.909 76.14C328.243 75.9933 328.616 75.92 329.029 75.92C329.736 75.92 330.293 76.0967 330.699 76.45C331.106 76.8033 331.309 77.3033 331.309 77.95V81H330.219L330.099 80.2C329.953 80.4667 329.746 80.6867 329.479 80.86C329.219 81.0333 328.883 81.12 328.469 81.12ZM328.759 80.12C329.126 80.12 329.409 80 329.609 79.76C329.816 79.52 329.946 79.2233 329.999 78.87H328.909C328.569 78.87 328.326 78.9333 328.179 79.06C328.033 79.18 327.959 79.33 327.959 79.51C327.959 79.7033 328.033 79.8533 328.179 79.96C328.326 80.0667 328.519 80.12 328.759 80.12ZM332.985 83.2L334.135 80.67H333.835L331.905 76.04H333.295L334.685 79.53L336.135 76.04H337.495L334.345 83.2H332.985Z" fill="white"/>
<path d="M372.1 81L370.25 74H371.62L372.88 79.57L374.36 74H375.77L377.21 79.57L378.47 74H379.85L377.95 81H376.43L375.04 75.81L373.61 81H372.1ZM382.63 81.12C382.13 81.12 381.687 81.0133 381.3 80.8C380.914 80.5867 380.61 80.2867 380.39 79.9C380.17 79.5133 380.06 79.0667 380.06 78.56C380.06 78.0467 380.167 77.59 380.38 77.19C380.6 76.79 380.9 76.48 381.28 76.26C381.667 76.0333 382.12 75.92 382.64 75.92C383.127 75.92 383.557 76.0267 383.93 76.24C384.304 76.4533 384.594 76.7467 384.8 77.12C385.014 77.4867 385.12 77.8967 385.12 78.35C385.12 78.4233 385.117 78.5 385.11 78.58C385.11 78.66 385.107 78.7433 385.1 78.83H381.33C381.357 79.2167 381.49 79.52 381.73 79.74C381.977 79.96 382.274 80.07 382.62 80.07C382.88 80.07 383.097 80.0133 383.27 79.9C383.45 79.78 383.584 79.6267 383.67 79.44H384.97C384.877 79.7533 384.72 80.04 384.5 80.3C384.287 80.5533 384.02 80.7533 383.7 80.9C383.387 81.0467 383.03 81.12 382.63 81.12ZM382.64 76.96C382.327 76.96 382.05 77.05 381.81 77.23C381.57 77.4033 381.417 77.67 381.35 78.03H383.82C383.8 77.7033 383.68 77.4433 383.46 77.25C383.24 77.0567 382.967 76.96 382.64 76.96ZM388.607 81.12C388.107 81.12 387.664 81.0133 387.277 80.8C386.89 80.5867 386.587 80.2867 386.367 79.9C386.147 79.5133 386.037 79.0667 386.037 78.56C386.037 78.0467 386.144 77.59 386.357 77.19C386.577 76.79 386.877 76.48 387.257 76.26C387.644 76.0333 388.097 75.92 388.617 75.92C389.104 75.92 389.534 76.0267 389.907 76.24C390.28 76.4533 390.57 76.7467 390.777 77.12C390.99 77.4867 391.097 77.8967 391.097 78.35C391.097 78.4233 391.094 78.5 391.087 78.58C391.087 78.66 391.084 78.7433 391.077 78.83H387.307C387.334 79.2167 387.467 79.52 387.707 79.74C387.954 79.96 388.25 80.07 388.597 80.07C388.857 80.07 389.074 80.0133 389.247 79.9C389.427 79.78 389.56 79.6267 389.647 79.44H390.947C390.854 79.7533 390.697 80.04 390.477 80.3C390.264 80.5533 389.997 80.7533 389.677 80.9C389.364 81.0467 389.007 81.12 388.607 81.12ZM388.617 76.96C388.304 76.96 388.027 77.05 387.787 77.23C387.547 77.4033 387.394 77.67 387.327 78.03H389.797C389.777 77.7033 389.657 77.4433 389.437 77.25C389.217 77.0567 388.944 76.96 388.617 76.96ZM392.173 81V73.8H393.453V78.05L395.213 76.04H396.733L394.703 78.3L397.063 81H395.463L393.453 78.51V81H392.173Z" fill="#5F6165"/>
<path d="M432.68 81V74H434.2L436.43 78.44L438.63 74H440.15V81H438.87V76.17L436.92 80H435.91L433.96 76.17V81H432.68ZM443.858 81.12C443.378 81.12 442.945 81.01 442.558 80.79C442.178 80.57 441.875 80.2667 441.648 79.88C441.428 79.4867 441.318 79.0333 441.318 78.52C441.318 78.0067 441.431 77.5567 441.658 77.17C441.885 76.7767 442.188 76.47 442.568 76.25C442.955 76.03 443.388 75.92 443.868 75.92C444.341 75.92 444.768 76.03 445.148 76.25C445.535 76.47 445.838 76.7767 446.058 77.17C446.285 77.5567 446.398 78.0067 446.398 78.52C446.398 79.0333 446.285 79.4867 446.058 79.88C445.838 80.2667 445.535 80.57 445.148 80.79C444.761 81.01 444.331 81.12 443.858 81.12ZM443.858 80.01C444.191 80.01 444.481 79.8867 444.728 79.64C444.975 79.3867 445.098 79.0133 445.098 78.52C445.098 78.0267 444.975 77.6567 444.728 77.41C444.481 77.1567 444.195 77.03 443.868 77.03C443.528 77.03 443.235 77.1567 442.988 77.41C442.748 77.6567 442.628 78.0267 442.628 78.52C442.628 79.0133 442.748 79.3867 442.988 79.64C443.235 79.8867 443.525 80.01 443.858 80.01ZM447.543 81V76.04H448.673L448.773 76.88C448.926 76.5867 449.146 76.3533 449.433 76.18C449.726 76.0067 450.069 75.92 450.463 75.92C451.076 75.92 451.553 76.1133 451.893 76.5C452.233 76.8867 452.403 77.4533 452.403 78.2V81H451.123V78.32C451.123 77.8933 451.036 77.5667 450.863 77.34C450.689 77.1133 450.419 77 450.053 77C449.693 77 449.396 77.1267 449.163 77.38C448.936 77.6333 448.823 77.9867 448.823 78.44V81H447.543ZM455.837 81C455.317 81 454.9 80.8733 454.587 80.62C454.273 80.3667 454.117 79.9167 454.117 79.27V77.11H453.267V76.04H454.117L454.267 74.71H455.397V76.04H456.737V77.11H455.397V79.28C455.397 79.52 455.447 79.6867 455.547 79.78C455.653 79.8667 455.833 79.91 456.087 79.91H456.707V81H455.837ZM457.836 81V73.8H459.116V76.8C459.282 76.5267 459.506 76.3133 459.786 76.16C460.072 76 460.399 75.92 460.766 75.92C461.379 75.92 461.852 76.1133 462.186 76.5C462.526 76.8867 462.696 77.4533 462.696 78.2V81H461.426V78.32C461.426 77.8933 461.339 77.5667 461.166 77.34C460.999 77.1133 460.732 77 460.366 77C460.006 77 459.706 77.1267 459.466 77.38C459.232 77.6333 459.116 77.9867 459.116 78.44V81H457.836Z" fill="#5F6165"/>
<rect x="50" y="102.5" width="1" height="188" fill="#F9F9F9"/>
<rect x="107" y="102.5" width="1" height="188" fill="#F9F9F9"/>
<rect x="164" y="102.5" width="1" height="188" fill="#F9F9F9"/>
<rect x="221" y="102.5" width="1" height="188" fill="#F9F9F9"/>
<rect x="278" y="102.5" width="1" height="188" fill="#F9F9F9"/>
<rect x="335" y="102.5" width="1" height="188" fill="#F9F9F9"/>
<rect x="392" y="102.5" width="1" height="188" fill="#F9F9F9"/>
<rect x="449" y="102.5" width="1" height="188" fill="#F9F9F9"/>
<path d="M41.4806 233.723C35.0877 247.184 27.1632 249.614 24 249.147V283.5H474V212.69C453.523 212.69 449.028 175.532 427.052 183.945C408.31 191.121 415.065 211.989 391.592 216.196C368.118 220.402 375.609 240.033 357.13 243.538C338.65 247.043 337.651 240.033 327.663 233.022C317.674 226.011 311.68 226.712 303.689 227.413C295.698 228.114 280.215 242.837 269.727 241.435C259.239 240.033 254.744 223.907 250.249 204.978C245.754 186.049 241.758 174.831 240.26 171.326L240.221 171.236C238.702 167.679 235.168 159.407 223.778 159.407C212.291 159.407 198.806 181.842 185.321 176.233C171.836 170.625 164.344 137.673 159.849 129.962C155.354 122.25 150.859 119.445 142.368 120.847C133.878 122.25 122.89 144.684 120.892 147.489C118.895 150.293 114.899 156.603 105.41 156.603C95.9201 156.603 90.9256 169.924 86.9301 179.739C82.9345 189.554 78.939 199.369 73.9445 204.277C68.9501 209.185 68.4506 207.081 61.9578 208.483C55.465 209.886 49.4717 216.896 41.4806 233.723Z" fill="url(#paint0_linear_87_1984)"/>
<path d="M24 249.447C27.1632 249.915 35.0877 247.479 41.4806 233.987C49.4717 217.122 55.465 210.094 61.9578 208.689C68.4506 207.283 68.9501 209.392 73.9445 204.473C78.939 199.553 82.9345 189.715 86.9301 179.877C90.9256 170.039 95.9201 156.687 105.41 156.687C114.899 156.687 118.895 150.363 120.892 147.552C122.89 144.741 133.878 122.254 142.368 120.848C150.859 119.443 155.354 122.254 159.849 129.984C164.344 137.714 171.836 170.742 185.321 176.364C198.806 181.985 212.291 159.498 223.778 159.498C235.265 159.498 238.761 167.931 240.26 171.445C241.758 174.958 245.754 186.202 250.249 205.175C254.744 224.149 259.239 240.312 269.727 241.717C280.215 243.123 295.698 228.365 303.689 227.663C311.68 226.96 317.674 226.257 327.663 233.284C337.651 240.312 338.65 247.339 357.13 243.825C375.609 240.312 368.118 220.635 391.592 216.419C415.065 212.203 408.31 191.286 427.052 184.094C449.028 175.661 453.523 212.905 474 212.905" stroke="#FF764C"/>
<path d="M36.848 308L40.74 299.208H35.364V298.2H41.944V299.082L38.094 308H36.848ZM49.4459 308.168C48.8673 308.168 48.3866 308.07 48.0039 307.874C47.6213 307.678 47.3366 307.417 47.1499 307.09C46.9633 306.763 46.8699 306.409 46.8699 306.026C46.8699 305.317 47.1406 304.771 47.6819 304.388C48.2233 304.005 48.9606 303.814 49.8939 303.814H51.7699V303.73C51.7699 303.123 51.6113 302.666 51.2939 302.358C50.9766 302.041 50.5519 301.882 50.0199 301.882C49.5626 301.882 49.1659 301.999 48.8299 302.232C48.5033 302.456 48.2979 302.787 48.2139 303.226H47.0099C47.0566 302.722 47.2246 302.297 47.5139 301.952C47.8126 301.607 48.1813 301.345 48.6199 301.168C49.0586 300.981 49.5253 300.888 50.0199 300.888C50.9906 300.888 51.7186 301.149 52.2039 301.672C52.6986 302.185 52.9459 302.871 52.9459 303.73V308H51.8959L51.8259 306.754C51.6299 307.146 51.3406 307.482 50.9579 307.762C50.5846 308.033 50.0806 308.168 49.4459 308.168ZM49.6279 307.174C50.0759 307.174 50.4586 307.057 50.7759 306.824C51.1026 306.591 51.3499 306.287 51.5179 305.914C51.6859 305.541 51.7699 305.149 51.7699 304.738V304.724H49.9919C49.3013 304.724 48.8113 304.845 48.5219 305.088C48.2419 305.321 48.1019 305.615 48.1019 305.97C48.1019 306.334 48.2326 306.628 48.4939 306.852C48.7646 307.067 49.1426 307.174 49.6279 307.174ZM54.7101 308V301.056H55.7741L55.8581 302.064C56.0821 301.691 56.3808 301.401 56.7541 301.196C57.1275 300.991 57.5475 300.888 58.0141 300.888C58.5648 300.888 59.0361 301 59.4281 301.224C59.8295 301.448 60.1375 301.789 60.3521 302.246C60.5948 301.826 60.9261 301.495 61.3461 301.252C61.7755 301.009 62.2375 300.888 62.7321 300.888C63.5628 300.888 64.2255 301.14 64.7201 301.644C65.2148 302.139 65.4621 302.904 65.4621 303.94V308H64.3001V304.066C64.3001 303.347 64.1555 302.806 63.8661 302.442C63.5768 302.078 63.1615 301.896 62.6201 301.896C62.0601 301.896 61.5935 302.115 61.2201 302.554C60.8561 302.983 60.6741 303.599 60.6741 304.402V308H59.4981V304.066C59.4981 303.347 59.3535 302.806 59.0641 302.442C58.7748 302.078 58.3595 301.896 57.8181 301.896C57.2675 301.896 56.8055 302.115 56.4321 302.554C56.0681 302.983 55.8861 303.599 55.8861 304.402V308H54.7101Z" fill="#808191"/>
<path d="M95.4131 308.168C94.7971 308.168 94.2697 308.047 93.8311 307.804C93.3924 307.561 93.0424 307.239 92.7811 306.838C92.5291 306.427 92.3751 305.975 92.3191 305.48H93.4111C93.5044 306.012 93.7284 306.423 94.0831 306.712C94.4377 307.001 94.8857 307.146 95.4271 307.146C96.1737 307.146 96.7944 306.801 97.2891 306.11C97.7837 305.41 98.0497 304.323 98.0871 302.848C97.8631 303.287 97.5037 303.669 97.0091 303.996C96.5237 304.313 95.9357 304.472 95.2451 304.472C94.6944 304.472 94.1717 304.341 93.6771 304.08C93.1824 303.819 92.7811 303.455 92.4731 302.988C92.1651 302.512 92.0111 301.957 92.0111 301.322C92.0111 300.771 92.1464 300.244 92.4171 299.74C92.6971 299.236 93.0891 298.825 93.5931 298.508C94.0971 298.191 94.6991 298.032 95.3991 298.032C96.1084 298.032 96.7057 298.167 97.1911 298.438C97.6764 298.699 98.0637 299.054 98.3531 299.502C98.6517 299.95 98.8664 300.454 98.9971 301.014C99.1371 301.565 99.2071 302.129 99.2071 302.708C99.2071 303.791 99.0577 304.743 98.7591 305.564C98.4604 306.376 98.0264 307.015 97.4571 307.482C96.8971 307.939 96.2157 308.168 95.4131 308.168ZM95.4831 303.45C95.9217 303.45 96.3137 303.352 96.6591 303.156C97.0044 302.951 97.2797 302.68 97.4851 302.344C97.6904 302.008 97.7931 301.644 97.7931 301.252C97.7931 300.832 97.6904 300.459 97.4851 300.132C97.2797 299.796 97.0044 299.535 96.6591 299.348C96.3137 299.161 95.9217 299.068 95.4831 299.068C95.0444 299.068 94.6524 299.161 94.3071 299.348C93.9617 299.535 93.6911 299.796 93.4951 300.132C93.2991 300.459 93.2011 300.837 93.2011 301.266C93.2011 301.929 93.4157 302.461 93.8451 302.862C94.2837 303.254 94.8297 303.45 95.4831 303.45ZM106.943 308.168C106.364 308.168 105.883 308.07 105.501 307.874C105.118 307.678 104.833 307.417 104.647 307.09C104.46 306.763 104.367 306.409 104.367 306.026C104.367 305.317 104.637 304.771 105.179 304.388C105.72 304.005 106.457 303.814 107.391 303.814H109.267V303.73C109.267 303.123 109.108 302.666 108.791 302.358C108.473 302.041 108.049 301.882 107.517 301.882C107.059 301.882 106.663 301.999 106.327 302.232C106 302.456 105.795 302.787 105.711 303.226H104.507C104.553 302.722 104.721 302.297 105.011 301.952C105.309 301.607 105.678 301.345 106.117 301.168C106.555 300.981 107.022 300.888 107.517 300.888C108.487 300.888 109.215 301.149 109.701 301.672C110.195 302.185 110.443 302.871 110.443 303.73V308H109.393L109.323 306.754C109.127 307.146 108.837 307.482 108.455 307.762C108.081 308.033 107.577 308.168 106.943 308.168ZM107.125 307.174C107.573 307.174 107.955 307.057 108.273 306.824C108.599 306.591 108.847 306.287 109.015 305.914C109.183 305.541 109.267 305.149 109.267 304.738V304.724H107.489C106.798 304.724 106.308 304.845 106.019 305.088C105.739 305.321 105.599 305.615 105.599 305.97C105.599 306.334 105.729 306.628 105.991 306.852C106.261 307.067 106.639 307.174 107.125 307.174ZM112.207 308V301.056H113.271L113.355 302.064C113.579 301.691 113.877 301.401 114.251 301.196C114.624 300.991 115.044 300.888 115.511 300.888C116.061 300.888 116.533 301 116.925 301.224C117.326 301.448 117.634 301.789 117.849 302.246C118.091 301.826 118.423 301.495 118.843 301.252C119.272 301.009 119.734 300.888 120.229 300.888C121.059 300.888 121.722 301.14 122.217 301.644C122.711 302.139 122.959 302.904 122.959 303.94V308H121.797V304.066C121.797 303.347 121.652 302.806 121.363 302.442C121.073 302.078 120.658 301.896 120.117 301.896C119.557 301.896 119.09 302.115 118.717 302.554C118.353 302.983 118.171 303.599 118.171 304.402V308H116.995V304.066C116.995 303.347 116.85 302.806 116.561 302.442C116.271 302.078 115.856 301.896 115.315 301.896C114.764 301.896 114.302 302.115 113.929 302.554C113.565 302.983 113.383 303.599 113.383 304.402V308H112.207Z" fill="#808191"/>
<path d="M150.288 308V299.516L148.706 299.866V299.054L150.68 298.2H151.478V308H150.288ZM154.512 308V299.516L152.93 299.866V299.054L154.904 298.2H155.702V308H154.512ZM163.716 308.168C163.137 308.168 162.657 308.07 162.274 307.874C161.891 307.678 161.607 307.417 161.42 307.09C161.233 306.763 161.14 306.409 161.14 306.026C161.14 305.317 161.411 304.771 161.952 304.388C162.493 304.005 163.231 303.814 164.164 303.814H166.04V303.73C166.04 303.123 165.881 302.666 165.564 302.358C165.247 302.041 164.822 301.882 164.29 301.882C163.833 301.882 163.436 301.999 163.1 302.232C162.773 302.456 162.568 302.787 162.484 303.226H161.28C161.327 302.722 161.495 302.297 161.784 301.952C162.083 301.607 162.451 301.345 162.89 301.168C163.329 300.981 163.795 300.888 164.29 300.888C165.261 300.888 165.989 301.149 166.474 301.672C166.969 302.185 167.216 302.871 167.216 303.73V308H166.166L166.096 306.754C165.9 307.146 165.611 307.482 165.228 307.762C164.855 308.033 164.351 308.168 163.716 308.168ZM163.898 307.174C164.346 307.174 164.729 307.057 165.046 306.824C165.373 306.591 165.62 306.287 165.788 305.914C165.956 305.541 166.04 305.149 166.04 304.738V304.724H164.262C163.571 304.724 163.081 304.845 162.792 305.088C162.512 305.321 162.372 305.615 162.372 305.97C162.372 306.334 162.503 306.628 162.764 306.852C163.035 307.067 163.413 307.174 163.898 307.174ZM168.98 308V301.056H170.044L170.128 302.064C170.352 301.691 170.651 301.401 171.024 301.196C171.397 300.991 171.817 300.888 172.284 300.888C172.835 300.888 173.306 301 173.698 301.224C174.099 301.448 174.407 301.789 174.622 302.246C174.865 301.826 175.196 301.495 175.616 301.252C176.045 301.009 176.507 300.888 177.002 300.888C177.833 300.888 178.495 301.14 178.99 301.644C179.485 302.139 179.732 302.904 179.732 303.94V308H178.57V304.066C178.57 303.347 178.425 302.806 178.136 302.442C177.847 302.078 177.431 301.896 176.89 301.896C176.33 301.896 175.863 302.115 175.49 302.554C175.126 302.983 174.944 303.599 174.944 304.402V308H173.768V304.066C173.768 303.347 173.623 302.806 173.334 302.442C173.045 302.078 172.629 301.896 172.088 301.896C171.537 301.896 171.075 302.115 170.702 302.554C170.338 302.983 170.156 303.599 170.156 304.402V308H168.98Z" fill="#808191"/>
<path d="M207.431 308V299.516L205.849 299.866V299.054L207.823 298.2H208.621V308H207.431ZM214.324 311.08V301.056H215.388L215.5 302.204C215.724 301.868 216.042 301.565 216.452 301.294C216.872 301.023 217.404 300.888 218.048 300.888C218.739 300.888 219.341 301.047 219.854 301.364C220.368 301.681 220.764 302.115 221.044 302.666C221.334 303.217 221.478 303.842 221.478 304.542C221.478 305.242 221.334 305.867 221.044 306.418C220.764 306.959 220.363 307.389 219.84 307.706C219.327 308.014 218.725 308.168 218.034 308.168C217.465 308.168 216.956 308.051 216.508 307.818C216.07 307.585 215.734 307.258 215.5 306.838V311.08H214.324ZM217.908 307.146C218.375 307.146 218.786 307.039 219.14 306.824C219.495 306.6 219.775 306.292 219.98 305.9C220.186 305.508 220.288 305.051 220.288 304.528C220.288 304.005 220.186 303.548 219.98 303.156C219.775 302.764 219.495 302.461 219.14 302.246C218.786 302.022 218.375 301.91 217.908 301.91C217.442 301.91 217.031 302.022 216.676 302.246C216.322 302.461 216.042 302.764 215.836 303.156C215.631 303.548 215.528 304.005 215.528 304.528C215.528 305.051 215.631 305.508 215.836 305.9C216.042 306.292 216.322 306.6 216.676 306.824C217.031 307.039 217.442 307.146 217.908 307.146ZM223.115 308V301.056H224.179L224.263 302.064C224.487 301.691 224.786 301.401 225.159 301.196C225.533 300.991 225.953 300.888 226.419 300.888C226.97 300.888 227.441 301 227.833 301.224C228.235 301.448 228.543 301.789 228.757 302.246C229 301.826 229.331 301.495 229.751 301.252C230.181 301.009 230.643 300.888 231.137 300.888C231.968 300.888 232.631 301.14 233.125 301.644C233.62 302.139 233.867 302.904 233.867 303.94V308H232.705V304.066C232.705 303.347 232.561 302.806 232.271 302.442C231.982 302.078 231.567 301.896 231.025 301.896C230.465 301.896 229.999 302.115 229.625 302.554C229.261 302.983 229.079 303.599 229.079 304.402V308H227.903V304.066C227.903 303.347 227.759 302.806 227.469 302.442C227.18 302.078 226.765 301.896 226.223 301.896C225.673 301.896 225.211 302.115 224.837 302.554C224.473 302.983 224.291 303.599 224.291 304.402V308H223.115Z" fill="#808191"/>
<path d="M263.659 308.168C263.034 308.168 262.469 308.056 261.965 307.832C261.461 307.599 261.055 307.253 260.747 306.796C260.449 306.339 260.29 305.769 260.271 305.088H261.461C261.471 305.648 261.667 306.133 262.049 306.544C262.432 306.945 262.969 307.146 263.659 307.146C264.35 307.146 264.868 306.955 265.213 306.572C265.568 306.189 265.745 305.727 265.745 305.186C265.745 304.729 265.633 304.355 265.409 304.066C265.195 303.777 264.901 303.562 264.527 303.422C264.163 303.282 263.762 303.212 263.323 303.212H262.595V302.218H263.323C263.958 302.218 264.453 302.073 264.807 301.784C265.171 301.495 265.353 301.089 265.353 300.566C265.353 300.127 265.209 299.768 264.919 299.488C264.639 299.199 264.219 299.054 263.659 299.054C263.118 299.054 262.684 299.217 262.357 299.544C262.031 299.861 261.849 300.263 261.811 300.748H260.621C260.649 300.216 260.789 299.745 261.041 299.334C261.303 298.923 261.657 298.606 262.105 298.382C262.553 298.149 263.071 298.032 263.659 298.032C264.294 298.032 264.821 298.144 265.241 298.368C265.671 298.592 265.993 298.891 266.207 299.264C266.431 299.637 266.543 300.048 266.543 300.496C266.543 300.991 266.408 301.443 266.137 301.854C265.867 302.255 265.461 302.526 264.919 302.666C265.498 302.787 265.979 303.063 266.361 303.492C266.744 303.921 266.935 304.486 266.935 305.186C266.935 305.727 266.809 306.227 266.557 306.684C266.315 307.132 265.951 307.491 265.465 307.762C264.98 308.033 264.378 308.168 263.659 308.168ZM272.473 311.08V301.056H273.537L273.649 302.204C273.873 301.868 274.19 301.565 274.601 301.294C275.021 301.023 275.553 300.888 276.197 300.888C276.888 300.888 277.49 301.047 278.003 301.364C278.516 301.681 278.913 302.115 279.193 302.666C279.482 303.217 279.627 303.842 279.627 304.542C279.627 305.242 279.482 305.867 279.193 306.418C278.913 306.959 278.512 307.389 277.989 307.706C277.476 308.014 276.874 308.168 276.183 308.168C275.614 308.168 275.105 308.051 274.657 307.818C274.218 307.585 273.882 307.258 273.649 306.838V311.08H272.473ZM276.057 307.146C276.524 307.146 276.934 307.039 277.289 306.824C277.644 306.6 277.924 306.292 278.129 305.9C278.334 305.508 278.437 305.051 278.437 304.528C278.437 304.005 278.334 303.548 278.129 303.156C277.924 302.764 277.644 302.461 277.289 302.246C276.934 302.022 276.524 301.91 276.057 301.91C275.59 301.91 275.18 302.022 274.825 302.246C274.47 302.461 274.19 302.764 273.985 303.156C273.78 303.548 273.677 304.005 273.677 304.528C273.677 305.051 273.78 305.508 273.985 305.9C274.19 306.292 274.47 306.6 274.825 306.824C275.18 307.039 275.59 307.146 276.057 307.146ZM281.264 308V301.056H282.328L282.412 302.064C282.636 301.691 282.935 301.401 283.308 301.196C283.681 300.991 284.101 300.888 284.568 300.888C285.119 300.888 285.59 301 285.982 301.224C286.383 301.448 286.691 301.789 286.906 302.246C287.149 301.826 287.48 301.495 287.9 301.252C288.329 301.009 288.791 300.888 289.286 300.888C290.117 300.888 290.779 301.14 291.274 301.644C291.769 302.139 292.016 302.904 292.016 303.94V308H290.854V304.066C290.854 303.347 290.709 302.806 290.42 302.442C290.131 302.078 289.715 301.896 289.174 301.896C288.614 301.896 288.147 302.115 287.774 302.554C287.41 302.983 287.228 303.599 287.228 304.402V308H286.052V304.066C286.052 303.347 285.907 302.806 285.618 302.442C285.329 302.078 284.913 301.896 284.372 301.896C283.821 301.896 283.359 302.115 282.986 302.554C282.622 302.983 282.44 303.599 282.44 304.402V308H281.264Z" fill="#808191"/>
<path d="M322.082 308.168C321.41 308.168 320.827 308.047 320.332 307.804C319.838 307.561 319.441 307.23 319.142 306.81C318.853 306.381 318.676 305.895 318.61 305.354H319.758C319.87 305.895 320.132 306.334 320.542 306.67C320.953 306.997 321.471 307.16 322.096 307.16C322.563 307.16 322.964 307.053 323.3 306.838C323.636 306.614 323.893 306.315 324.07 305.942C324.257 305.569 324.35 305.153 324.35 304.696C324.35 303.968 324.145 303.38 323.734 302.932C323.324 302.484 322.792 302.26 322.138 302.26C321.597 302.26 321.135 302.381 320.752 302.624C320.37 302.867 320.09 303.184 319.912 303.576H318.792L319.632 298.2H324.77V299.222H320.542L319.968 302.204C320.192 301.933 320.5 301.709 320.892 301.532C321.294 301.355 321.751 301.266 322.264 301.266C322.908 301.266 323.468 301.415 323.944 301.714C324.43 302.013 324.808 302.419 325.078 302.932C325.349 303.445 325.484 304.029 325.484 304.682C325.484 305.307 325.349 305.886 325.078 306.418C324.817 306.95 324.43 307.375 323.916 307.692C323.412 308.009 322.801 308.168 322.082 308.168ZM330.958 311.08V301.056H332.022L332.134 302.204C332.358 301.868 332.675 301.565 333.086 301.294C333.506 301.023 334.038 300.888 334.682 300.888C335.372 300.888 335.974 301.047 336.488 301.364C337.001 301.681 337.398 302.115 337.678 302.666C337.967 303.217 338.112 303.842 338.112 304.542C338.112 305.242 337.967 305.867 337.678 306.418C337.398 306.959 336.996 307.389 336.474 307.706C335.96 308.014 335.358 308.168 334.668 308.168C334.098 308.168 333.59 308.051 333.142 307.818C332.703 307.585 332.367 307.258 332.134 306.838V311.08H330.958ZM334.542 307.146C335.008 307.146 335.419 307.039 335.774 306.824C336.128 306.6 336.408 306.292 336.614 305.9C336.819 305.508 336.922 305.051 336.922 304.528C336.922 304.005 336.819 303.548 336.614 303.156C336.408 302.764 336.128 302.461 335.774 302.246C335.419 302.022 335.008 301.91 334.542 301.91C334.075 301.91 333.664 302.022 333.31 302.246C332.955 302.461 332.675 302.764 332.47 303.156C332.264 303.548 332.162 304.005 332.162 304.528C332.162 305.051 332.264 305.508 332.47 305.9C332.675 306.292 332.955 306.6 333.31 306.824C333.664 307.039 334.075 307.146 334.542 307.146ZM339.749 308V301.056H340.813L340.897 302.064C341.121 301.691 341.419 301.401 341.793 301.196C342.166 300.991 342.586 300.888 343.053 300.888C343.603 300.888 344.075 301 344.467 301.224C344.868 301.448 345.176 301.789 345.391 302.246C345.633 301.826 345.965 301.495 346.385 301.252C346.814 301.009 347.276 300.888 347.771 300.888C348.601 300.888 349.264 301.14 349.759 301.644C350.253 302.139 350.501 302.904 350.501 303.94V308H349.339V304.066C349.339 303.347 349.194 302.806 348.905 302.442C348.615 302.078 348.2 301.896 347.659 301.896C347.099 301.896 346.632 302.115 346.259 302.554C345.895 302.983 345.713 303.599 345.713 304.402V308H344.537V304.066C344.537 303.347 344.392 302.806 344.103 302.442C343.813 302.078 343.398 301.896 342.857 301.896C342.306 301.896 341.844 302.115 341.471 302.554C341.107 302.983 340.925 303.599 340.925 304.402V308H339.749Z" fill="#808191"/>
<path d="M377.705 308L381.597 299.208H376.221V298.2H382.801V299.082L378.951 308H377.705ZM387.993 311.08V301.056H389.057L389.169 302.204C389.393 301.868 389.71 301.565 390.121 301.294C390.541 301.023 391.073 300.888 391.717 300.888C392.408 300.888 393.01 301.047 393.523 301.364C394.036 301.681 394.433 302.115 394.713 302.666C395.002 303.217 395.147 303.842 395.147 304.542C395.147 305.242 395.002 305.867 394.713 306.418C394.433 306.959 394.032 307.389 393.509 307.706C392.996 308.014 392.394 308.168 391.703 308.168C391.134 308.168 390.625 308.051 390.177 307.818C389.738 307.585 389.402 307.258 389.169 306.838V311.08H387.993ZM391.577 307.146C392.044 307.146 392.454 307.039 392.809 306.824C393.164 306.6 393.444 306.292 393.649 305.9C393.854 305.508 393.957 305.051 393.957 304.528C393.957 304.005 393.854 303.548 393.649 303.156C393.444 302.764 393.164 302.461 392.809 302.246C392.454 302.022 392.044 301.91 391.577 301.91C391.11 301.91 390.7 302.022 390.345 302.246C389.99 302.461 389.71 302.764 389.505 303.156C389.3 303.548 389.197 304.005 389.197 304.528C389.197 305.051 389.3 305.508 389.505 305.9C389.71 306.292 389.99 306.6 390.345 306.824C390.7 307.039 391.11 307.146 391.577 307.146ZM396.784 308V301.056H397.848L397.932 302.064C398.156 301.691 398.455 301.401 398.828 301.196C399.201 300.991 399.621 300.888 400.088 300.888C400.639 300.888 401.11 301 401.502 301.224C401.903 301.448 402.211 301.789 402.426 302.246C402.669 301.826 403 301.495 403.42 301.252C403.849 301.009 404.311 300.888 404.806 300.888C405.637 300.888 406.299 301.14 406.794 301.644C407.289 302.139 407.536 302.904 407.536 303.94V308H406.374V304.066C406.374 303.347 406.229 302.806 405.94 302.442C405.651 302.078 405.235 301.896 404.694 301.896C404.134 301.896 403.667 302.115 403.294 302.554C402.93 302.983 402.748 303.599 402.748 304.402V308H401.572V304.066C401.572 303.347 401.427 302.806 401.138 302.442C400.849 302.078 400.433 301.896 399.892 301.896C399.341 301.896 398.879 302.115 398.506 302.554C398.142 302.983 397.96 303.599 397.96 304.402V308H396.784Z" fill="#808191"/>
<path d="M437.27 308.168C436.654 308.168 436.127 308.047 435.688 307.804C435.249 307.561 434.899 307.239 434.638 306.838C434.386 306.427 434.232 305.975 434.176 305.48H435.268C435.361 306.012 435.585 306.423 435.94 306.712C436.295 307.001 436.743 307.146 437.284 307.146C438.031 307.146 438.651 306.801 439.146 306.11C439.641 305.41 439.907 304.323 439.944 302.848C439.72 303.287 439.361 303.669 438.866 303.996C438.381 304.313 437.793 304.472 437.102 304.472C436.551 304.472 436.029 304.341 435.534 304.08C435.039 303.819 434.638 303.455 434.33 302.988C434.022 302.512 433.868 301.957 433.868 301.322C433.868 300.771 434.003 300.244 434.274 299.74C434.554 299.236 434.946 298.825 435.45 298.508C435.954 298.191 436.556 298.032 437.256 298.032C437.965 298.032 438.563 298.167 439.048 298.438C439.533 298.699 439.921 299.054 440.21 299.502C440.509 299.95 440.723 300.454 440.854 301.014C440.994 301.565 441.064 302.129 441.064 302.708C441.064 303.791 440.915 304.743 440.616 305.564C440.317 306.376 439.883 307.015 439.314 307.482C438.754 307.939 438.073 308.168 437.27 308.168ZM437.34 303.45C437.779 303.45 438.171 303.352 438.516 303.156C438.861 302.951 439.137 302.68 439.342 302.344C439.547 302.008 439.65 301.644 439.65 301.252C439.65 300.832 439.547 300.459 439.342 300.132C439.137 299.796 438.861 299.535 438.516 299.348C438.171 299.161 437.779 299.068 437.34 299.068C436.901 299.068 436.509 299.161 436.164 299.348C435.819 299.535 435.548 299.796 435.352 300.132C435.156 300.459 435.058 300.837 435.058 301.266C435.058 301.929 435.273 302.461 435.702 302.862C436.141 303.254 436.687 303.45 437.34 303.45ZM446.489 311.08V301.056H447.553L447.665 302.204C447.889 301.868 448.207 301.565 448.617 301.294C449.037 301.023 449.569 300.888 450.213 300.888C450.904 300.888 451.506 301.047 452.019 301.364C452.533 301.681 452.929 302.115 453.209 302.666C453.499 303.217 453.643 303.842 453.643 304.542C453.643 305.242 453.499 305.867 453.209 306.418C452.929 306.959 452.528 307.389 452.005 307.706C451.492 308.014 450.89 308.168 450.199 308.168C449.63 308.168 449.121 308.051 448.673 307.818C448.235 307.585 447.899 307.258 447.665 306.838V311.08H446.489ZM450.073 307.146C450.54 307.146 450.951 307.039 451.305 306.824C451.66 306.6 451.94 306.292 452.145 305.9C452.351 305.508 452.453 305.051 452.453 304.528C452.453 304.005 452.351 303.548 452.145 303.156C451.94 302.764 451.66 302.461 451.305 302.246C450.951 302.022 450.54 301.91 450.073 301.91C449.607 301.91 449.196 302.022 448.841 302.246C448.487 302.461 448.207 302.764 448.001 303.156C447.796 303.548 447.693 304.005 447.693 304.528C447.693 305.051 447.796 305.508 448.001 305.9C448.207 306.292 448.487 306.6 448.841 306.824C449.196 307.039 449.607 307.146 450.073 307.146ZM455.28 308V301.056H456.344L456.428 302.064C456.652 301.691 456.951 301.401 457.324 301.196C457.698 300.991 458.118 300.888 458.584 300.888C459.135 300.888 459.606 301 459.998 301.224C460.4 301.448 460.708 301.789 460.922 302.246C461.165 301.826 461.496 301.495 461.916 301.252C462.346 301.009 462.808 300.888 463.302 300.888C464.133 300.888 464.796 301.14 465.29 301.644C465.785 302.139 466.032 302.904 466.032 303.94V308H464.87V304.066C464.87 303.347 464.726 302.806 464.436 302.442C464.147 302.078 463.732 301.896 463.19 301.896C462.63 301.896 462.164 302.115 461.79 302.554C461.426 302.983 461.244 303.599 461.244 304.402V308H460.068V304.066C460.068 303.347 459.924 302.806 459.634 302.442C459.345 302.078 458.93 301.896 458.388 301.896C457.838 301.896 457.376 302.115 457.002 302.554C456.638 302.983 456.456 303.599 456.456 304.402V308H455.28Z" fill="#808191"/>
<defs>
<linearGradient id="paint0_linear_87_1984" x1="241.259" y1="42.6792" x2="240.274" y2="260.014" gradientUnits="userSpaceOnUse">
<stop stop-color="#FF764C" stop-opacity="0.24"/>
<stop offset="1" stop-color="#FF7E07" stop-opacity="0"/>
</linearGradient>
</defs>
</svg>
